<?xml version="1.0" encoding="UTF-8"?>
<svg width="1200pt" height="1200pt" version="1.1" viewBox="0 0 1200 1200" xmlns="http://www.w3.org/2000/svg">
 <path d="m603 30.336c-316.46 0-573 256.54-573 573 0 316.46 256.54 573 573 573s573-256.54 573-573c0-316.46-256.54-573-573-573zm45.445 285.89h84.301v84.301h-84.301zm-84.398 84.301h84.301v84.301h-84.301zm-84.754 83.246h84.301v84.301h-84.301zm-84.746 83.254h84.301v84.301h-84.301zm84 84.781h84.301v84.301h-84.301zm84.746 84.312h84.301v84.301h-84.301zm84.215 83.988h84.301v84.301h-84.301z"/>
</svg>
