<?xml version="1.0" encoding="UTF-8"?>
<svg version="1.1" xmlns="http://www.w3.org/2000/svg" width="500" height="500">
<path d="M0 0 C1.27037109 -0.02416992 1.27037109 -0.02416992 2.56640625 -0.04882812 C10.90702579 -0.05521451 17.97861844 1.51653151 24.1875 7.375 C24.94160156 8.06722656 25.69570312 8.75945313 26.47265625 9.47265625 C28.125 11.3125 28.125 11.3125 28.125 13.3125 C28.785 13.3125 29.445 13.3125 30.125 13.3125 C31.71875 15.2265625 31.71875 15.2265625 33.625 17.9375 C34.34171875 18.94683594 35.0584375 19.95617187 35.796875 20.99609375 C36.57299541 22.10150722 37.34903576 23.2069769 38.125 24.3125 C39.70410557 26.54468422 41.2886441 28.77296386 42.875 31 C43.2879834 31.58064209 43.7009668 32.16128418 44.12646484 32.75952148 C47.93247168 38.08894137 51.85663159 43.3259394 55.79931641 48.5546875 C58.65456396 52.34325734 61.47552704 56.15153751 64.25 60 C67.54142786 64.55473523 70.95289492 69.00977029 74.39477539 73.45092773 C77.90204007 77.98905996 81.28296492 82.60688979 84.62890625 87.265625 C85.96529273 89.20399688 85.96529273 89.20399688 87.125 90.3125 C87.12864563 89.41571533 87.13229126 88.51893066 87.13604736 87.5949707 C87.17400087 79.12074419 87.23093699 70.64689966 87.30890274 62.17294312 C87.34831905 57.81694081 87.38053602 53.46113889 87.39599609 49.10498047 C87.41120147 44.89665607 87.44571502 40.68888276 87.49330902 36.48080444 C87.50808301 34.87979945 87.51603872 33.27871576 87.51688385 31.67764282 C87.52740052 21.73935672 87.94149894 14.72644255 94.25 6.5625 C103.95190427 -1.03029465 115.30626558 -0.8154917 127.125 0.3125 C134.36401662 1.60807344 139.00934553 4.36371876 143.78515625 9.921875 C148.098304 17.61763717 147.44371957 26.41676456 147.47558594 34.9675293 C147.48817594 36.44514153 147.50159047 37.92274694 147.51576233 39.40034485 C147.55148549 43.39645546 147.57494818 47.39254954 147.5955801 51.38876319 C147.61406353 54.73570957 147.63878824 58.08259788 147.66355062 61.42950279 C147.72201465 69.33406535 147.77075144 77.23864573 147.81298828 85.14331055 C147.85654204 93.26967614 147.91461657 101.3958422 147.98023582 109.52205724 C148.03634454 116.52189719 148.08423811 123.52175974 148.1254847 130.52170306 C148.15008204 134.6921003 148.17746468 138.86242643 148.21239471 143.03275108 C148.24485755 146.96029748 148.26692603 150.88777522 148.28140068 154.81542778 C148.28830717 156.24678457 148.29865913 157.67813013 148.31295204 159.10943222 C148.57994476 186.67825122 148.57994476 186.67825122 139.875 195.625 C129.38002475 202.06509845 115.7104544 202.63994315 103.796875 200.14453125 C94.60384929 197.28179079 89.89417047 190.92892386 84.53417969 183.28808594 C81.64475284 179.2372817 78.61980698 175.28561798 75.625 171.3125 C74.3159424 169.56805632 73.00733875 167.82327188 71.69921875 166.078125 C71.08095215 165.25376953 70.46268555 164.42941406 69.82568359 163.58007812 C67.69628906 160.74088542 65.56689453 157.90169271 63.4375 155.0625 C62.41462891 153.69931641 62.41462891 153.69931641 61.37109375 152.30859375 C59.63250729 149.9894706 57.89578858 147.6689888 56.16015625 145.34765625 C50.87723683 138.28599541 45.57568425 131.246091 40.125 124.3125 C38.85290209 122.68848976 37.5820705 121.06348681 36.3125 119.4375 C35.46751953 118.35855469 35.46751953 118.35855469 34.60546875 117.2578125 C33.38470162 115.65374382 32.24314527 113.9897179 31.125 112.3125 C31.12135437 113.15473114 31.11770874 113.99696228 31.11395264 114.86471558 C31.07594025 122.83798234 31.01893844 130.81084557 30.94109726 138.78382683 C30.90174344 142.88194148 30.86949621 146.97984516 30.85400391 151.078125 C30.83875685 155.04008648 30.80417116 159.00146747 30.75669098 162.9631691 C30.74195949 164.46762138 30.73396376 165.97215659 30.73311615 167.47668076 C30.71228923 185.92381896 30.71228923 185.92381896 24.51141357 193.20797729 C17.46067842 200.11584941 7.59996571 201.28924855 -1.875 201.3125 C-10.53163264 200.84676304 -17.35105634 199.22923679 -23.875 193.3125 C-28.7702766 187.4130641 -30.12216874 181.08950473 -30.13569641 173.53971863 C-30.13952196 172.89559204 -30.14334751 172.25146545 -30.14728898 171.58781987 C-30.15753158 169.44933047 -30.15364367 167.31111396 -30.1496582 165.17260742 C-30.15400959 163.63116713 -30.15919416 162.08972901 -30.16514587 160.54829407 C-30.1785028 156.37459203 -30.17911812 152.20098073 -30.17658257 148.0272615 C-30.17551038 144.5359593 -30.1804027 141.04467527 -30.185188 137.55337697 C-30.19627226 129.31185654 -30.19672701 121.07038169 -30.19067383 112.82885742 C-30.18463748 104.34407344 -30.19693889 95.85945544 -30.2182439 87.37469977 C-30.23589494 80.07508898 -30.24185565 72.77553085 -30.23860615 65.47589952 C-30.23679836 61.12282027 -30.23937874 56.76985936 -30.25332069 52.41679955 C-30.26595118 48.32009641 -30.26390593 44.22365068 -30.25090981 40.12695122 C-30.2485556 38.62985393 -30.25123692 37.13273823 -30.25953293 35.63566208 C-30.31403921 25.02844345 -29.96617929 14.82191515 -22.875 6.3125 C-15.76627693 0.62552154 -8.76158766 -0.03303766 0 0 Z " fill="#FEFEFD" transform="translate(76.875,39.6875)"/>
<path d="M0 0 C1.51373955 -0.0129007 1.51373955 -0.0129007 3.05805969 -0.02606201 C4.1594075 -0.03032196 5.26075531 -0.03458191 6.39547729 -0.03897095 C8.14253212 -0.05123718 8.14253212 -0.05123718 9.92488098 -0.06375122 C13.78340137 -0.08858423 17.64188499 -0.10511689 21.50045776 -0.11953735 C23.47864313 -0.12752287 23.47864313 -0.12752287 25.49679184 -0.13566971 C31.04197565 -0.15729098 36.58715664 -0.17602394 42.1323719 -0.1872921 C50.05823689 -0.20350786 57.9836099 -0.23663565 65.90928948 -0.29369295 C71.49334422 -0.33251056 77.07726804 -0.35193884 82.66145408 -0.35721266 C85.9909395 -0.36085102 89.31948417 -0.37524175 92.64889908 -0.4053154 C96.37079211 -0.43701348 100.09145287 -0.43699557 103.81344604 -0.42959595 C105.44724968 -0.45420395 105.44724968 -0.45420395 107.11405945 -0.47930908 C114.99679886 -0.41540324 121.44047417 1.3893824 127.60888863 6.49048805 C133.68557759 12.99101598 135.00388464 22.60073708 134.99264526 31.15390015 C134.425846 37.87008315 133.73309266 44.39936569 129.99264526 50.15390015 C129.43577026 51.02015015 128.87889526 51.88640015 128.30514526 52.77890015 C122.5593604 58.67997649 115.44479737 60.22334003 107.42056274 60.34178162 C106.70918152 60.34753708 105.99780029 60.35329254 105.26486206 60.35922241 C104.12259911 60.37407181 104.12259911 60.37407181 102.95726013 60.38922119 C100.4521592 60.42068835 97.94703934 60.44553485 95.44186401 60.4703064 C93.70022604 60.49088871 91.95859292 60.51188551 90.21696472 60.53327942 C85.64184509 60.58836822 81.06668136 60.63783547 76.4914856 60.68612671 C71.81930638 60.73643827 67.14719088 60.79207386 62.47506714 60.84725952 C53.31431433 60.95467965 44.15350611 61.05616023 34.99264526 61.15390015 C34.99264526 63.79390015 34.99264526 66.43390015 34.99264526 69.15390015 C35.96197998 69.16269951 35.96197998 69.16269951 36.95089722 69.17167664 C43.69995968 69.23579925 50.44855361 69.3202675 57.19723511 69.41635132 C59.71312264 69.4495275 62.22908329 69.47758199 64.74508667 69.50033569 C68.3695887 69.53401533 71.99342506 69.58634006 75.61764526 69.6421814 C76.73566528 69.64857132 77.8536853 69.65496124 79.00558472 69.6615448 C86.16054918 69.79509227 92.3652117 70.31615566 98.19967651 74.88046265 C98.7294812 75.50694702 99.25928589 76.1334314 99.80514526 76.77890015 C100.34784058 77.38991577 100.89053589 78.0009314 101.44967651 78.63046265 C105.48877315 85.23617513 106.50284822 91.96098019 106.36764526 99.59140015 C106.3574939 100.42252319 106.34734253 101.25364624 106.33688354 102.10995483 C106.12193318 110.61799018 105.0676377 118.2837592 98.83796692 124.57327271 C91.99330133 130.43613473 84.16311718 130.75373281 75.51998901 130.76327515 C74.35633316 130.7798114 73.19267731 130.79634766 71.99375916 130.81338501 C68.30583308 130.86166388 64.6183188 130.88319225 60.93014526 130.90390015 C58.41775498 130.93207649 55.90538371 130.96200622 53.39303589 130.9937439 C47.25964661 131.06741762 41.12637218 131.11917777 34.99264526 131.15390015 C34.66264526 134.12390015 34.33264526 137.09390015 33.99264526 140.15390015 C35.37000854 140.14866333 36.74737183 140.14342651 38.16647339 140.13803101 C53.77543822 140.08431288 69.38371439 140.09201412 84.99264526 140.15390015 C85.91813171 140.15671997 86.84361816 140.15953979 87.79714966 140.16244507 C92.39365179 140.17847321 96.98826951 140.21759444 101.58395386 140.30749512 C103.49601945 140.34038317 105.40844212 140.34993127 107.32077026 140.35873413 C114.77957201 140.5471879 120.84429527 141.71103311 126.99264526 146.15390015 C133.64055175 153.57238418 134.70984175 162.55743421 134.99264526 172.15390015 C134.47610981 181.18293988 132.42041914 189.28176122 125.61764526 195.52890015 C119.31133304 200.87880483 111.9748568 200.4459345 104.14743042 200.42855835 C102.95971542 200.43366928 101.77200043 200.43878021 100.54829407 200.44404602 C97.30229999 200.45553988 94.05646481 200.45801945 90.8104558 200.45548272 C88.09443558 200.45440993 85.37843869 200.4593043 82.66242349 200.46408814 C76.25099515 200.47516878 69.83962541 200.47562909 63.42819214 200.46957397 C56.82868632 200.46353675 50.22939384 200.47584197 43.62992442 200.49714404 C37.95073075 200.51479705 32.27160476 200.52075553 26.5923847 200.5175063 C23.20626163 200.51569894 19.82029071 200.5182744 16.43419266 200.53222084 C12.6548451 200.54457823 8.87598906 200.53779693 5.09664917 200.5262146 C3.98469681 200.53385834 2.87274445 200.54150208 1.72709656 200.54937744 C-7.08849519 200.48976376 -13.89052845 198.92899922 -20.53469849 192.8296814 C-25.48245403 187.19947682 -26.128988 179.86737007 -26.14779663 172.6663208 C-26.15350677 171.35432205 -26.15921692 170.0423233 -26.1651001 168.69056702 C-26.16634533 167.24328623 -26.16747045 165.79600533 -26.16848755 164.34872437 C-26.1731188 162.81905498 -26.17814387 161.28938675 -26.18353271 159.75971985 C-26.19663152 155.60858372 -26.20309707 151.45746374 -26.20754337 147.30631018 C-26.21047894 144.70929213 -26.21458472 142.11227845 -26.21904755 139.5152626 C-26.23271755 131.37967477 -26.24238592 123.24409698 -26.24624944 115.10849845 C-26.25072526 105.73643104 -26.26825312 96.36450982 -26.29725003 86.99248683 C-26.31891651 79.73622018 -26.32895641 72.47999451 -26.33029056 65.22369587 C-26.33133528 60.89569478 -26.33717169 56.56783121 -26.35511017 52.23986435 C-26.37167635 48.16371842 -26.37370524 44.08781211 -26.36497116 40.01164436 C-26.36420526 38.52302594 -26.36848389 37.03439419 -26.37842941 35.54580879 C-26.50434025 15.5106125 -26.50434025 15.5106125 -20.88235474 7.71640015 C-15.00068074 2.47403854 -7.8186692 0.0497567 0 0 Z " fill="#FEFEFE" transform="translate(294.0073547363281,260.8460998535156)"/>
<path d="M0 0 C6.16886025 4.90095221 12.29148923 9.88362682 17.96484375 15.35546875 C17.96484375 16.01546875 17.96484375 16.67546875 17.96484375 17.35546875 C18.95484375 17.68546875 19.94484375 18.01546875 20.96484375 18.35546875 C22.2199707 19.74731445 22.2199707 19.74731445 23.453125 21.53125 C23.90937256 22.18834961 24.36562012 22.84544922 24.83569336 23.52246094 C25.5493103 24.5844873 25.5493103 24.5844873 26.27734375 25.66796875 C27.01319702 26.75513184 27.01319702 26.75513184 27.76391602 27.86425781 C45.15553926 53.97905158 47.94344669 83.07694162 41.96484375 113.35546875 C40.91696057 117.50669827 39.6066125 121.4045936 37.96484375 125.35546875 C37.60648438 126.24878906 37.248125 127.14210937 36.87890625 128.0625 C30.4301766 143.18888264 19.77304064 159.83854107 5.96484375 169.35546875 C5.30484375 169.35546875 4.64484375 169.35546875 3.96484375 169.35546875 C3.96484375 170.01546875 3.96484375 170.67546875 3.96484375 171.35546875 C-18.68671351 187.42040297 -45.22556239 192.69423685 -72.59912109 188.58129883 C-97.47516851 184.07349553 -120.46201416 169.20249596 -135.24658203 148.67333984 C-137.71910291 145.01502898 -139.90810486 141.22193132 -142.03515625 137.35546875 C-142.73898437 136.12957031 -142.73898437 136.12957031 -143.45703125 134.87890625 C-155.66795382 112.34146274 -157.61646599 82.47890747 -150.58984375 58.0625 C-142.65143886 32.4057961 -127.38756736 9.21849576 -103.2421875 -3.703125 C-70.61429441 -20.70184488 -30.97267789 -22.2630009 0 0 Z M-85.03515625 58.35546875 C-92.98026438 68.38096679 -94.97913302 80.88148999 -94.03515625 93.35546875 C-92.38444853 102.63324167 -89.48228356 109.49769639 -83.03515625 116.35546875 C-82.50019531 116.99097656 -81.96523438 117.62648438 -81.4140625 118.28125 C-75.82869682 124.5363238 -67.2231013 128.97187524 -58.8125 129.59375 C-45.41261665 129.8527508 -36.40774768 126.47639208 -26.47265625 117.29296875 C-17.23623322 107.90078817 -15.75041343 97.38543546 -15.71386719 84.83789062 C-15.8004595 77.69051426 -16.5371188 71.70780759 -20.03515625 65.35546875 C-20.61265625 64.30359375 -21.19015625 63.25171875 -21.78515625 62.16796875 C-29.53383874 52.48211564 -39.13703194 44.82824079 -51.84765625 43.29296875 C-65.0147621 42.92721581 -76.1378409 48.87674467 -85.03515625 58.35546875 Z " fill="#FEFDFD" transform="translate(412.03515625,53.64453125)"/>
<path d="M0 0 C1.56163761 -0.00457424 3.12327322 -0.00988346 4.68490601 -0.0158844 C7.94773565 -0.02477726 11.2103201 -0.02243942 14.47314453 -0.01245117 C18.60810561 -0.00101297 22.74220604 -0.02111269 26.87705421 -0.05036831 C30.101483 -0.06892672 33.32571342 -0.06839857 36.55018234 -0.06273079 C38.07206802 -0.06257971 39.59396907 -0.06844293 41.11580276 -0.08102226 C54.70229549 -0.17746771 68.06366329 1.65590724 80.2109375 8.18359375 C80.86811768 8.52358398 81.52529785 8.86357422 82.20239258 9.21386719 C87.97122867 12.29832159 92.93066522 16.11767951 97.8359375 20.43359375 C99.11597656 21.42746094 99.11597656 21.42746094 100.421875 22.44140625 C103.92745185 25.33435802 106.27988565 28.70331503 108.8359375 32.43359375 C109.34382812 33.16449219 109.85171875 33.89539063 110.375 34.6484375 C120.5790126 50.37308255 123.80322627 70.48365548 120.65625 88.84765625 C116.24840425 108.1162391 107.25576642 124.89990834 90.3046875 135.88671875 C89.49 136.3971875 88.6753125 136.90765625 87.8359375 137.43359375 C87.10375 137.9440625 86.3715625 138.45453125 85.6171875 138.98046875 C66.42757245 151.72973355 44.9390672 150.45787909 22.8359375 150.43359375 C22.85164795 151.25972168 22.8673584 152.08584961 22.88354492 152.93701172 C22.93516487 156.04945487 22.97252372 159.16167733 23.00073242 162.27441406 C23.02295229 164.2651228 23.06110345 166.25563343 23.09960938 168.24609375 C23.16521966 176.90665156 22.98138624 185.57165746 17.6484375 192.80859375 C10.36003091 199.61110657 2.74203383 200.62736754 -6.8515625 200.68359375 C-8.14223633 200.71453125 -8.14223633 200.71453125 -9.45898438 200.74609375 C-17.81281839 200.79645597 -25.69869421 198.99681763 -32.1640625 193.43359375 C-36.06016614 187.37715059 -37.28545565 181.98291214 -37.31123352 174.82502747 C-37.31491021 174.16234082 -37.3185869 173.49965418 -37.322375 172.81688613 C-37.33338238 170.59772413 -37.33725066 168.378609 -37.34106445 166.15942383 C-37.34733136 164.56754407 -37.35397836 162.97566577 -37.36097717 161.38378906 C-37.38199399 156.15691136 -37.39237775 150.93003344 -37.40234375 145.703125 C-37.40639228 143.90170463 -37.41050923 142.10028442 -37.41469383 140.29886436 C-37.43374075 131.83437533 -37.44797249 123.36989499 -37.4563058 114.90538865 C-37.4660749 105.14441891 -37.49238795 95.38367613 -37.53280669 85.62278634 C-37.56299785 78.07188249 -37.57777754 70.52104358 -37.58108681 62.97008055 C-37.58343398 58.46323074 -37.59235091 53.95662354 -37.61754799 49.44983864 C-37.64088617 45.2070494 -37.645039 40.96466152 -37.63478661 36.72182465 C-37.63429252 35.16947021 -37.64057535 33.61709563 -37.65434265 32.06480217 C-37.72975248 23.05392648 -37.75379446 14.74852 -31.58296108 7.60267258 C-23.19738507 -0.78388243 -11.02447963 -0.02855177 0 0 Z M22.8359375 61.43359375 C22.74826638 63.50621451 22.72897877 65.58179669 22.73828125 67.65625 C22.74150391 68.91630859 22.74472656 70.17636719 22.74804688 71.47460938 C22.75640347 72.81510484 22.76486843 74.15559963 22.7734375 75.49609375 C22.7784509 76.84049317 22.78301408 78.18489435 22.78710938 79.52929688 C22.79894262 82.83077316 22.81542779 86.13216178 22.8359375 89.43359375 C27.04879149 90.83787841 31.04735245 90.65797061 35.4609375 90.68359375 C36.32589844 90.70421875 37.19085938 90.72484375 38.08203125 90.74609375 C45.53030907 90.79076108 52.05544027 89.8086018 57.8359375 84.87109375 C61.24528036 80.71595714 61.29457053 77.54657502 61.24609375 72.26953125 C60.69643022 68.46900058 59.29408073 66.54306618 56.734375 63.7734375 C52.47210333 60.76529103 47.92113691 60.18234922 42.81640625 60.203125 C41.71232422 60.20505859 40.60824219 60.20699219 39.47070312 60.20898438 C38.33310547 60.22123047 37.19550781 60.23347656 36.0234375 60.24609375 C34.86650391 60.24673828 33.70957031 60.24738281 32.51757812 60.24804688 C27.3177774 59.77500851 27.3177774 59.77500851 22.8359375 61.43359375 Z " fill="#FEFEFE" transform="translate(113.1640625,260.56640625)"/>
<path d="M0 0 C1.27037109 -0.02416992 1.27037109 -0.02416992 2.56640625 -0.04882812 C10.90702579 -0.05521451 17.97861844 1.51653151 24.1875 7.375 C24.94160156 8.06722656 25.69570312 8.75945313 26.47265625 9.47265625 C28.125 11.3125 28.125 11.3125 28.125 13.3125 C28.785 13.3125 29.445 13.3125 30.125 13.3125 C31.71875 15.2265625 31.71875 15.2265625 33.625 17.9375 C34.34171875 18.94683594 35.0584375 19.95617187 35.796875 20.99609375 C36.57299541 22.10150722 37.34903576 23.2069769 38.125 24.3125 C39.70410557 26.54468422 41.2886441 28.77296386 42.875 31 C43.2879834 31.58064209 43.7009668 32.16128418 44.12646484 32.75952148 C47.93247168 38.08894137 51.85663159 43.3259394 55.79931641 48.5546875 C58.65456396 52.34325734 61.47552704 56.15153751 64.25 60 C67.54142786 64.55473523 70.95289492 69.00977029 74.39477539 73.45092773 C77.90204007 77.98905996 81.28296492 82.60688979 84.62890625 87.265625 C85.96529273 89.20399688 85.96529273 89.20399688 87.125 90.3125 C87.12864563 89.41571533 87.13229126 88.51893066 87.13604736 87.5949707 C87.17400087 79.12074419 87.23093699 70.64689966 87.30890274 62.17294312 C87.34831905 57.81694081 87.38053602 53.46113889 87.39599609 49.10498047 C87.41120147 44.89665607 87.44571502 40.68888276 87.49330902 36.48080444 C87.50808301 34.87979945 87.51603872 33.27871576 87.51688385 31.67764282 C87.52740052 21.73935672 87.94149894 14.72644255 94.25 6.5625 C103.95190427 -1.03029465 115.30626558 -0.8154917 127.125 0.3125 C134.36401662 1.60807344 139.00934553 4.36371876 143.78515625 9.921875 C148.098304 17.61763717 147.44371957 26.41676456 147.47558594 34.9675293 C147.48817594 36.44514153 147.50159047 37.92274694 147.51576233 39.40034485 C147.55148549 43.39645546 147.57494818 47.39254954 147.5955801 51.38876319 C147.61406353 54.73570957 147.63878824 58.08259788 147.66355062 61.42950279 C147.72201465 69.33406535 147.77075144 77.23864573 147.81298828 85.14331055 C147.85654204 93.26967614 147.91461657 101.3958422 147.98023582 109.52205724 C148.03634454 116.52189719 148.08423811 123.52175974 148.1254847 130.52170306 C148.15008204 134.6921003 148.17746468 138.86242643 148.21239471 143.03275108 C148.24485755 146.96029748 148.26692603 150.88777522 148.28140068 154.81542778 C148.28830717 156.24678457 148.29865913 157.67813013 148.31295204 159.10943222 C148.57994476 186.67825122 148.57994476 186.67825122 139.875 195.625 C129.38002475 202.06509845 115.7104544 202.63994315 103.796875 200.14453125 C94.60384929 197.28179079 89.89417047 190.92892386 84.53417969 183.28808594 C81.64475284 179.2372817 78.61980698 175.28561798 75.625 171.3125 C74.3159424 169.56805632 73.00733875 167.82327188 71.69921875 166.078125 C71.08095215 165.25376953 70.46268555 164.42941406 69.82568359 163.58007812 C67.69628906 160.74088542 65.56689453 157.90169271 63.4375 155.0625 C62.41462891 153.69931641 62.41462891 153.69931641 61.37109375 152.30859375 C59.63250729 149.9894706 57.89578858 147.6689888 56.16015625 145.34765625 C50.87723683 138.28599541 45.57568425 131.246091 40.125 124.3125 C38.85290209 122.68848976 37.5820705 121.06348681 36.3125 119.4375 C35.46751953 118.35855469 35.46751953 118.35855469 34.60546875 117.2578125 C33.38470162 115.65374382 32.24314527 113.9897179 31.125 112.3125 C31.12135437 113.15473114 31.11770874 113.99696228 31.11395264 114.86471558 C31.07594025 122.83798234 31.01893844 130.81084557 30.94109726 138.78382683 C30.90174344 142.88194148 30.86949621 146.97984516 30.85400391 151.078125 C30.83875685 155.04008648 30.80417116 159.00146747 30.75669098 162.9631691 C30.74195949 164.46762138 30.73396376 165.97215659 30.73311615 167.47668076 C30.71228923 185.92381896 30.71228923 185.92381896 24.51141357 193.20797729 C17.46067842 200.11584941 7.59996571 201.28924855 -1.875 201.3125 C-10.53163264 200.84676304 -17.35105634 199.22923679 -23.875 193.3125 C-28.7702766 187.4130641 -30.12216874 181.08950473 -30.13569641 173.53971863 C-30.13952196 172.89559204 -30.14334751 172.25146545 -30.14728898 171.58781987 C-30.15753158 169.44933047 -30.15364367 167.31111396 -30.1496582 165.17260742 C-30.15400959 163.63116713 -30.15919416 162.08972901 -30.16514587 160.54829407 C-30.1785028 156.37459203 -30.17911812 152.20098073 -30.17658257 148.0272615 C-30.17551038 144.5359593 -30.1804027 141.04467527 -30.185188 137.55337697 C-30.19627226 129.31185654 -30.19672701 121.07038169 -30.19067383 112.82885742 C-30.18463748 104.34407344 -30.19693889 95.85945544 -30.2182439 87.37469977 C-30.23589494 80.07508898 -30.24185565 72.77553085 -30.23860615 65.47589952 C-30.23679836 61.12282027 -30.23937874 56.76985936 -30.25332069 52.41679955 C-30.26595118 48.32009641 -30.26390593 44.22365068 -30.25090981 40.12695122 C-30.2485556 38.62985393 -30.25123692 37.13273823 -30.25953293 35.63566208 C-30.31403921 25.02844345 -29.96617929 14.82191515 -22.875 6.3125 C-15.76627693 0.62552154 -8.76158766 -0.03303766 0 0 Z M-18.875 13.3125 C-21.29595609 18.18268652 -22.25000984 21.71594859 -22.2492218 27.2328186 C-22.25319621 27.89272368 -22.25717061 28.55262875 -22.26126546 29.23253095 C-22.27082228 31.42428871 -22.25911147 33.61539018 -22.24731445 35.80712891 C-22.24974457 37.38623799 -22.25346602 38.96534553 -22.25837708 40.54444885 C-22.26775811 44.81910981 -22.25838499 49.09354068 -22.24504495 53.36818361 C-22.233705 57.8461538 -22.23783982 62.32411308 -22.23979187 66.80209351 C-22.24067386 74.31894681 -22.22961285 81.83570976 -22.21118164 89.35253906 C-22.19000009 98.04075229 -22.18650799 106.72883334 -22.1927436 115.41706717 C-22.19843899 123.7811893 -22.19279052 132.14526492 -22.18157005 140.50938034 C-22.17692796 144.06668331 -22.17604851 147.6239578 -22.1781559 151.18126297 C-22.18004018 155.36902464 -22.17192417 159.55665185 -22.1560955 163.74438286 C-22.15185523 165.2806626 -22.15100038 166.81695599 -22.15378571 168.35323906 C-22.15701194 170.45102288 -22.14791504 172.54840605 -22.13569641 174.64614868 C-22.13364354 175.81971735 -22.13159067 176.99328602 -22.12947559 178.20241737 C-21.87580837 181.30262053 -21.19583778 183.5151499 -19.875 186.3125 C-19.215 186.3125 -18.555 186.3125 -17.875 186.3125 C-17.51535156 187.24835938 -17.51535156 187.24835938 -17.1484375 188.203125 C-15.1173019 191.56758274 -12.44822046 191.81383124 -8.7890625 192.7734375 C0.83783875 194.55428518 10.83388934 193.8399071 19.125 188.3125 C22.15714386 182.77715822 22.54517612 178.21280941 22.46557617 171.98071289 C22.46601425 171.07260864 22.46645233 170.16450439 22.46690369 169.22888184 C22.4648249 166.24741612 22.44153684 163.26652292 22.41796875 160.28515625 C22.41236956 158.21008105 22.40810099 156.13500186 22.40510559 154.05992126 C22.39368229 148.61336204 22.36423667 143.16704498 22.33099365 137.72058105 C22.30023856 132.15685298 22.28658864 126.59308556 22.27148438 121.02929688 C22.23936463 110.12359186 22.18819866 99.21806611 22.125 88.3125 C22.785 88.3125 23.445 88.3125 24.125 88.3125 C24.5271875 89.5190625 24.5271875 89.5190625 24.9375 90.75 C25.5253125 92.0184375 25.5253125 92.0184375 26.125 93.3125 C27.115 93.6425 28.105 93.9725 29.125 94.3125 C29.46529127 95.64407453 29.79714063 96.9778101 30.125 98.3125 C31.83847714 100.74981279 31.83847714 100.74981279 33.9375 103.1875 C36.28802347 106.0299935 38.54192554 108.81053699 40.5 111.9375 C41.03625 112.72125 41.5725 113.505 42.125 114.3125 C42.785 114.3125 43.445 114.3125 44.125 114.3125 C44.39699219 115.0446875 44.66898437 115.776875 44.94921875 116.53125 C47.20111037 121.85798367 50.47728422 126.66478422 54.5625 130.75 C56.83104115 133.01854115 58.45081506 135.11746336 60.25 137.75 C63.07516922 141.88143025 66.06842436 145.83839534 69.1875 149.75 C73.65343268 155.3642707 77.94711667 161.08874523 82.1875 166.875 C83.07924927 168.08542969 83.07924927 168.08542969 83.98901367 169.3203125 C86.66741301 172.95594174 89.33276585 176.59852702 91.95703125 180.2734375 C92.80410606 181.43271674 93.65172123 182.59160144 94.5 183.75 C95.56347656 185.23306641 95.56347656 185.23306641 96.6484375 186.74609375 C100.87546043 191.12646294 105.42607589 193.4078492 111.52734375 193.84375 C113.03900726 193.86034904 114.55119588 193.84940431 116.0625 193.8125 C116.85156738 193.80114014 117.64063477 193.78978027 118.45361328 193.77807617 C125.87896336 193.53025761 131.33515129 192.17209492 136.625 186.75 C139.13526326 182.67082221 139.25843368 179.52292377 139.28562927 174.81745911 C139.29071709 174.15492132 139.29580491 173.49238354 139.30104691 172.80976886 C139.31676834 170.58517675 139.32529564 168.36061712 139.33374023 166.13598633 C139.34327899 164.54263096 139.35317017 162.94927767 139.36338806 161.35592651 C139.3947721 156.11881976 139.41504045 150.88169713 139.43359375 145.64453125 C139.43853973 144.30764083 139.43853973 144.30764083 139.44358563 142.94374251 C139.47436746 134.53681637 139.50107258 126.12988663 139.51800442 117.72292042 C139.53990799 106.97377789 139.5818735 96.22513506 139.65144199 85.4761923 C139.69870896 77.91598722 139.7229416 70.35591684 139.7302013 62.79556865 C139.73515369 58.28133105 139.7501947 53.76765669 139.7899456 49.25358009 C139.82687315 45.00410794 139.83520199 40.75551926 139.82193947 36.5059166 C139.82199332 34.94989547 139.83224925 33.39383458 139.8536911 31.8379612 C140.01972509 20.90509487 140.01972509 20.90509487 134.67849827 11.65040112 C129.63019385 7.30270904 122.93171614 7.94629598 116.625 7.9375 C115.70074219 7.91300781 114.77648437 7.88851562 113.82421875 7.86328125 C108.06105324 7.83854663 104.6657979 8.4132591 100.125 12.3125 C95.22649768 17.74057014 94.96763505 22.02009048 94.91967773 29.09838867 C94.90977814 29.99615524 94.89987854 30.89392181 94.88967896 31.81889343 C94.85806544 34.78939162 94.83330705 37.7599058 94.80859375 40.73046875 C94.7880241 42.78884804 94.76702762 44.84722311 94.74562073 46.90559387 C94.69040122 52.32576072 94.64099137 57.74596568 94.59277344 63.16619873 C94.54255757 68.69612016 94.48687194 74.22598617 94.43164062 79.75585938 C94.32406051 90.60802559 94.22261517 101.4602399 94.125 112.3125 C93.465 112.3125 92.805 112.3125 92.125 112.3125 C91.77115234 111.26255859 91.77115234 111.26255859 91.41015625 110.19140625 C89.90164691 106.81216193 87.85584504 104.11722433 85.5625 101.25 C84.65567553 100.0928979 83.74943766 98.93533587 82.84375 97.77734375 C82.38742188 97.19710449 81.93109375 96.61686523 81.4609375 96.01904297 C77.02719636 90.35532758 72.6744421 84.62300997 68.6328125 78.671875 C68.22361572 78.06988281 67.81441895 77.46789062 67.39282227 76.84765625 C66.24536587 75.1482029 65.10871499 73.44146855 63.97265625 71.734375 C63.05806641 70.53554687 63.05806641 70.53554687 62.125 69.3125 C61.465 69.3125 60.805 69.3125 60.125 69.3125 C59.89039063 68.61382812 59.65578125 67.91515625 59.4140625 67.1953125 C57.89115086 63.78952829 55.81469941 61.07587632 53.5 58.1875 C52.59258649 57.03216289 51.68635264 55.87589836 50.78125 54.71875 C50.33136719 54.14511719 49.88148437 53.57148437 49.41796875 52.98046875 C45.54800215 47.98809492 41.91359249 42.81208578 38.23828125 37.67578125 C34.41356419 32.36151921 30.50235563 27.11889676 26.5 21.9375 C26.0568042 21.35444092 25.6136084 20.77138184 25.15698242 20.1706543 C20.97451172 14.80710519 15.86881316 8.93188052 8.77832031 8.00610352 C5.97671303 7.93571805 3.17747497 7.8915936 0.375 7.875 C-1.07132813 7.82569336 -1.07132813 7.82569336 -2.546875 7.77539062 C-8.90707267 7.72786197 -14.35296576 8.476175 -18.875 13.3125 Z " fill="#E1C3C2" transform="translate(76.875,39.6875)"/>
<path d="M0 0 C1.51373955 -0.0129007 1.51373955 -0.0129007 3.05805969 -0.02606201 C4.1594075 -0.03032196 5.26075531 -0.03458191 6.39547729 -0.03897095 C8.14253212 -0.05123718 8.14253212 -0.05123718 9.92488098 -0.06375122 C13.78340137 -0.08858423 17.64188499 -0.10511689 21.50045776 -0.11953735 C23.47864313 -0.12752287 23.47864313 -0.12752287 25.49679184 -0.13566971 C31.04197565 -0.15729098 36.58715664 -0.17602394 42.1323719 -0.1872921 C50.05823689 -0.20350786 57.9836099 -0.23663565 65.90928948 -0.29369295 C71.49334422 -0.33251056 77.07726804 -0.35193884 82.66145408 -0.35721266 C85.9909395 -0.36085102 89.31948417 -0.37524175 92.64889908 -0.4053154 C96.37079211 -0.43701348 100.09145287 -0.43699557 103.81344604 -0.42959595 C105.44724968 -0.45420395 105.44724968 -0.45420395 107.11405945 -0.47930908 C114.99679886 -0.41540324 121.44047417 1.3893824 127.60888863 6.49048805 C133.68557759 12.99101598 135.00388464 22.60073708 134.99264526 31.15390015 C134.425846 37.87008315 133.73309266 44.39936569 129.99264526 50.15390015 C129.43577026 51.02015015 128.87889526 51.88640015 128.30514526 52.77890015 C122.5593604 58.67997649 115.44479737 60.22334003 107.42056274 60.34178162 C106.70918152 60.34753708 105.99780029 60.35329254 105.26486206 60.35922241 C104.12259911 60.37407181 104.12259911 60.37407181 102.95726013 60.38922119 C100.4521592 60.42068835 97.94703934 60.44553485 95.44186401 60.4703064 C93.70022604 60.49088871 91.95859292 60.51188551 90.21696472 60.53327942 C85.64184509 60.58836822 81.06668136 60.63783547 76.4914856 60.68612671 C71.81930638 60.73643827 67.14719088 60.79207386 62.47506714 60.84725952 C53.31431433 60.95467965 44.15350611 61.05616023 34.99264526 61.15390015 C34.99264526 63.79390015 34.99264526 66.43390015 34.99264526 69.15390015 C35.96197998 69.16269951 35.96197998 69.16269951 36.95089722 69.17167664 C43.69995968 69.23579925 50.44855361 69.3202675 57.19723511 69.41635132 C59.71312264 69.4495275 62.22908329 69.47758199 64.74508667 69.50033569 C68.3695887 69.53401533 71.99342506 69.58634006 75.61764526 69.6421814 C76.73566528 69.64857132 77.8536853 69.65496124 79.00558472 69.6615448 C86.16054918 69.79509227 92.3652117 70.31615566 98.19967651 74.88046265 C98.7294812 75.50694702 99.25928589 76.1334314 99.80514526 76.77890015 C100.34784058 77.38991577 100.89053589 78.0009314 101.44967651 78.63046265 C105.48877315 85.23617513 106.50284822 91.96098019 106.36764526 99.59140015 C106.3574939 100.42252319 106.34734253 101.25364624 106.33688354 102.10995483 C106.12193318 110.61799018 105.0676377 118.2837592 98.83796692 124.57327271 C91.99330133 130.43613473 84.16311718 130.75373281 75.51998901 130.76327515 C74.35633316 130.7798114 73.19267731 130.79634766 71.99375916 130.81338501 C68.30583308 130.86166388 64.6183188 130.88319225 60.93014526 130.90390015 C58.41775498 130.93207649 55.90538371 130.96200622 53.39303589 130.9937439 C47.25964661 131.06741762 41.12637218 131.11917777 34.99264526 131.15390015 C34.66264526 134.12390015 34.33264526 137.09390015 33.99264526 140.15390015 C35.37000854 140.14866333 36.74737183 140.14342651 38.16647339 140.13803101 C53.77543822 140.08431288 69.38371439 140.09201412 84.99264526 140.15390015 C85.91813171 140.15671997 86.84361816 140.15953979 87.79714966 140.16244507 C92.39365179 140.17847321 96.98826951 140.21759444 101.58395386 140.30749512 C103.49601945 140.34038317 105.40844212 140.34993127 107.32077026 140.35873413 C114.77957201 140.5471879 120.84429527 141.71103311 126.99264526 146.15390015 C133.64055175 153.57238418 134.70984175 162.55743421 134.99264526 172.15390015 C134.47610981 181.18293988 132.42041914 189.28176122 125.61764526 195.52890015 C119.31133304 200.87880483 111.9748568 200.4459345 104.14743042 200.42855835 C102.95971542 200.43366928 101.77200043 200.43878021 100.54829407 200.44404602 C97.30229999 200.45553988 94.05646481 200.45801945 90.8104558 200.45548272 C88.09443558 200.45440993 85.37843869 200.4593043 82.66242349 200.46408814 C76.25099515 200.47516878 69.83962541 200.47562909 63.42819214 200.46957397 C56.82868632 200.46353675 50.22939384 200.47584197 43.62992442 200.49714404 C37.95073075 200.51479705 32.27160476 200.52075553 26.5923847 200.5175063 C23.20626163 200.51569894 19.82029071 200.5182744 16.43419266 200.53222084 C12.6548451 200.54457823 8.87598906 200.53779693 5.09664917 200.5262146 C3.98469681 200.53385834 2.87274445 200.54150208 1.72709656 200.54937744 C-7.08849519 200.48976376 -13.89052845 198.92899922 -20.53469849 192.8296814 C-25.48245403 187.19947682 -26.128988 179.86737007 -26.14779663 172.6663208 C-26.15350677 171.35432205 -26.15921692 170.0423233 -26.1651001 168.69056702 C-26.16634533 167.24328623 -26.16747045 165.79600533 -26.16848755 164.34872437 C-26.1731188 162.81905498 -26.17814387 161.28938675 -26.18353271 159.75971985 C-26.19663152 155.60858372 -26.20309707 151.45746374 -26.20754337 147.30631018 C-26.21047894 144.70929213 -26.21458472 142.11227845 -26.21904755 139.5152626 C-26.23271755 131.37967477 -26.24238592 123.24409698 -26.24624944 115.10849845 C-26.25072526 105.73643104 -26.26825312 96.36450982 -26.29725003 86.99248683 C-26.31891651 79.73622018 -26.32895641 72.47999451 -26.33029056 65.22369587 C-26.33133528 60.89569478 -26.33717169 56.56783121 -26.35511017 52.23986435 C-26.37167635 48.16371842 -26.37370524 44.08781211 -26.36497116 40.01164436 C-26.36420526 38.52302594 -26.36848389 37.03439419 -26.37842941 35.54580879 C-26.50434025 15.5106125 -26.50434025 15.5106125 -20.88235474 7.71640015 C-15.00068074 2.47403854 -7.8186692 0.0497567 0 0 Z M-13.00735474 11.15390015 C-17.08847897 16.30900444 -18.13084076 20.06860911 -18.15452576 26.53504944 C-18.15820244 27.18533656 -18.16187913 27.83562369 -18.16566724 28.50561649 C-18.17669683 30.68876003 -18.18054669 32.87185596 -18.18435669 35.05502319 C-18.19062195 36.61882173 -18.19726881 38.18261877 -18.20426941 39.74641418 C-18.22530693 44.88613855 -18.23567236 50.0258632 -18.24563599 55.1656189 C-18.24968383 56.93579435 -18.25380076 58.70596965 -18.25798607 60.47614479 C-18.27703804 68.79380274 -18.29126836 77.11145182 -18.29959804 85.4291274 C-18.30936714 95.02541746 -18.33567803 104.62147667 -18.37609893 114.2176854 C-18.40627917 121.63776903 -18.42106877 129.05778656 -18.42437905 136.47793037 C-18.42672761 140.90819371 -18.43566255 145.33821041 -18.46084023 149.76840782 C-18.48415905 153.93895451 -18.488339 158.10909285 -18.47807884 162.27968788 C-18.47758427 163.80666082 -18.48388145 165.33365411 -18.49763489 166.86056519 C-18.56527987 174.81869364 -18.60984574 181.37087591 -14.00735474 188.15390015 C-9.16130386 192.09131648 -5.33870548 193.27248718 0.77894592 193.29434204 C1.73906586 193.30005219 2.69918579 193.30576233 3.68840027 193.31164551 C5.2586219 193.3133223 5.2586219 193.3133223 6.86056519 193.31503296 C7.96835327 193.31999786 9.07614136 193.32496277 10.21749878 193.33007812 C13.8860435 193.34469454 17.55454495 193.35150145 21.22311401 193.35702515 C23.77416485 193.36277769 26.32521567 193.36853541 28.87626648 193.3742981 C33.54458292 193.383464 38.21288639 193.38976445 42.88120955 193.39279485 C49.73525781 193.39726936 56.58910602 193.41479133 63.44309348 193.44379544 C69.39325266 193.46809373 75.34336252 193.47574296 81.29357338 193.4774704 C83.81766154 193.4804922 86.34174896 193.48850474 88.86580467 193.50165558 C92.40327336 193.51876855 95.94025904 193.51682252 99.47775269 193.51034546 C100.51444595 193.51956024 101.55113922 193.52877502 102.61924744 193.53826904 C109.8459045 193.49695764 117.04397851 193.02696006 122.43014526 187.77890015 C125.85899496 182.01843266 126.33076609 177.4259517 126.30514526 170.84140015 C126.32125854 170.02477905 126.33737183 169.20815796 126.35397339 168.36679077 C126.35854196 162.63323987 125.44075077 158.35970765 122.99264526 153.15390015 C117.31700314 148.54244092 112.74152809 148.00868358 105.66574097 148.04037476 C104.39224289 148.04015572 104.39224289 148.04015572 103.09301758 148.03993225 C100.28479463 148.04062931 97.47663789 148.04841209 94.66842651 148.0562439 C92.72215308 148.05810881 90.77587917 148.05953237 88.8296051 148.06053162 C83.7053091 148.06435102 78.58104141 148.07417642 73.45675659 148.0852356 C68.228489 148.09546209 63.00021684 148.10003189 57.77194214 148.10507202 C47.51216207 148.11579918 37.25241045 148.13339134 26.99264526 148.15390015 C26.99264526 139.90390015 26.99264526 131.65390015 26.99264526 123.15390015 C30.94233276 123.18870483 34.89202026 123.22350952 38.96139526 123.2593689 C42.80058062 123.28278709 46.63975793 123.30099087 50.47897339 123.31869507 C53.1406095 123.33205182 55.80175812 123.35419829 58.46334839 123.38021851 C62.29609278 123.41674129 66.12850816 123.43365907 69.96139526 123.4468689 C71.14503662 123.46235275 72.32867798 123.47783661 73.54818726 123.49378967 C81.54361856 123.49540646 87.82191625 122.68968172 94.43014526 117.84140015 C99.08248357 112.96211851 98.20243609 106.14484241 98.24264526 99.71640015 C98.26327026 98.89591187 98.28389526 98.07542358 98.30514526 97.23007202 C98.34009633 91.75586196 97.58560581 87.99864221 94.99264526 83.15390015 C90.98640458 79.14765946 87.70550229 78.26872491 82.15150452 78.03364563 C81.11447891 78.03586624 80.07745331 78.03808685 79.00900269 78.04037476 C77.82815598 78.04045029 76.64730927 78.04052582 75.43067932 78.04060364 C74.16593277 78.04576492 72.90118622 78.05092621 71.59811401 78.0562439 C70.2956221 78.05765884 68.99313019 78.05907379 67.65116882 78.06053162 C64.20048072 78.0643366 60.74983519 78.0741495 57.29916382 78.0852356 C53.7731688 78.09549326 50.24716666 78.10009346 46.72116089 78.10507202 C39.81161817 78.11524209 32.90219212 78.13481886 25.99264526 78.15390015 C25.99264526 69.57390015 25.99264526 60.99390015 25.99264526 52.15390015 C28.64682495 52.18008423 31.30100464 52.20626831 34.03561401 52.23324585 C42.82051562 52.31622082 51.60543487 52.37137413 60.390625 52.41296101 C65.71537055 52.43901675 71.03971345 52.47434159 76.36422729 52.53109741 C81.50600117 52.58556023 86.64738857 52.61535093 91.78942871 52.62828636 C93.74780356 52.63750062 95.70615806 52.65549412 97.66436768 52.68255043 C100.41487772 52.71903068 103.16380591 52.72383762 105.91452026 52.7215271 C106.71797379 52.73950348 107.52142731 52.75747986 108.34922791 52.77600098 C114.28612373 52.72229851 118.43041891 50.98564207 122.99264526 47.15390015 C127.88056288 39.74318634 128.08714226 29.90805715 126.46139526 21.3609314 C125.19701181 16.70882488 124.0778351 13.03756356 119.99264526 10.15390015 C116.47684372 8.51478294 113.71312937 7.90224212 109.84484863 7.89320374 C108.82997879 7.88611893 107.81510895 7.87903412 106.76948547 7.87173462 C105.66701981 7.87421204 104.56455414 7.87668945 103.42868042 7.87924194 C102.2590123 7.87413101 101.08934418 7.86902008 99.88423157 7.86375427 C96.01667162 7.84985136 92.14928974 7.85081568 88.28170776 7.8531189 C86.27243892 7.85080951 84.26317448 7.84730571 82.25390756 7.84371215 C75.93698427 7.83262584 69.62012045 7.83217435 63.30319214 7.83822632 C56.79741224 7.84426364 50.29184874 7.83195939 43.78610575 7.81065625 C38.1910234 7.79301214 32.59600976 7.78704338 27.00090063 7.79029399 C23.66338538 7.79210284 20.32614746 7.78818928 16.98863602 7.77557945 C13.26405451 7.76323496 9.53997276 7.76999561 5.81539917 7.78158569 C4.16777336 7.77012009 4.16777336 7.77012009 2.48686218 7.75842285 C-3.44361907 7.79918509 -7.81573952 8.18431846 -13.00735474 11.15390015 Z " fill="#E4C3C2" transform="translate(294.0073547363281,260.8460998535156)"/>
<path d="M0 0 C6.16886025 4.90095221 12.29148923 9.88362682 17.96484375 15.35546875 C17.96484375 16.01546875 17.96484375 16.67546875 17.96484375 17.35546875 C18.95484375 17.68546875 19.94484375 18.01546875 20.96484375 18.35546875 C22.2199707 19.74731445 22.2199707 19.74731445 23.453125 21.53125 C23.90937256 22.18834961 24.36562012 22.84544922 24.83569336 23.52246094 C25.5493103 24.5844873 25.5493103 24.5844873 26.27734375 25.66796875 C27.01319702 26.75513184 27.01319702 26.75513184 27.76391602 27.86425781 C45.15553926 53.97905158 47.94344669 83.07694162 41.96484375 113.35546875 C40.91696057 117.50669827 39.6066125 121.4045936 37.96484375 125.35546875 C37.60648438 126.24878906 37.248125 127.14210937 36.87890625 128.0625 C30.4301766 143.18888264 19.77304064 159.83854107 5.96484375 169.35546875 C5.30484375 169.35546875 4.64484375 169.35546875 3.96484375 169.35546875 C3.96484375 170.01546875 3.96484375 170.67546875 3.96484375 171.35546875 C-18.68671351 187.42040297 -45.22556239 192.69423685 -72.59912109 188.58129883 C-97.47516851 184.07349553 -120.46201416 169.20249596 -135.24658203 148.67333984 C-137.71910291 145.01502898 -139.90810486 141.22193132 -142.03515625 137.35546875 C-142.73898437 136.12957031 -142.73898437 136.12957031 -143.45703125 134.87890625 C-155.66795382 112.34146274 -157.61646599 82.47890747 -150.58984375 58.0625 C-142.65143886 32.4057961 -127.38756736 9.21849576 -103.2421875 -3.703125 C-70.61429441 -20.70184488 -30.97267789 -22.2630009 0 0 Z M-118.03515625 17.35546875 C-119.36546875 18.59296875 -119.36546875 18.59296875 -120.72265625 19.85546875 C-140.53147994 41.27041328 -147.17253791 66.44947444 -146.421875 95 C-146.08927674 103.30656297 -144.930191 110.550228 -142.03515625 118.35546875 C-141.47441406 119.93521484 -141.47441406 119.93521484 -140.90234375 121.546875 C-131.80757063 145.1270318 -113.82660694 164.3313951 -90.98828125 175.109375 C-71.35540909 183.39361603 -44.19644753 185.41998526 -24.03515625 177.35546875 C-22.30265625 176.73671875 -22.30265625 176.73671875 -20.53515625 176.10546875 C-7.09125248 170.91659361 3.51804985 162.5158196 13.08984375 151.85546875 C13.75242187 151.12328125 14.415 150.39109375 15.09765625 149.63671875 C16.99858353 147.31424693 18.46049885 144.94832337 19.96484375 142.35546875 C20.93739256 140.93425075 21.91652609 139.51751526 22.90234375 138.10546875 C27.43016783 131.29142808 30.09599708 124.25260725 32.58984375 116.48046875 C32.8993396 115.52708618 32.8993396 115.52708618 33.21508789 114.55444336 C40.44675161 91.20935273 38.61056244 64.41363379 27.96484375 42.35546875 C25.83271292 38.53092711 23.49620601 34.92659486 20.96484375 31.35546875 C20.11212891 30.14890625 20.11212891 30.14890625 19.2421875 28.91796875 C15.90749255 24.42106804 12.35219919 20.66675169 8.04296875 17.09765625 C6.63823107 15.92000022 5.2733176 14.69342627 3.94921875 13.42578125 C-2.34881812 7.43098319 -9.39759583 3.36630457 -17.03515625 -0.64453125 C-17.81761719 -1.06863281 -18.60007812 -1.49273437 -19.40625 -1.9296875 C-52.29360284 -18.28011056 -92.85469237 -6.77007588 -118.03515625 17.35546875 Z " fill="#E0C2C1" transform="translate(412.03515625,53.64453125)"/>
<path d="M0 0 C1.56163761 -0.00457424 3.12327322 -0.00988346 4.68490601 -0.0158844 C7.94773565 -0.02477726 11.2103201 -0.02243942 14.47314453 -0.01245117 C18.60810561 -0.00101297 22.74220604 -0.02111269 26.87705421 -0.05036831 C30.101483 -0.06892672 33.32571342 -0.06839857 36.55018234 -0.06273079 C38.07206802 -0.06257971 39.59396907 -0.06844293 41.11580276 -0.08102226 C54.70229549 -0.17746771 68.06366329 1.65590724 80.2109375 8.18359375 C80.86811768 8.52358398 81.52529785 8.86357422 82.20239258 9.21386719 C87.97122867 12.29832159 92.93066522 16.11767951 97.8359375 20.43359375 C99.11597656 21.42746094 99.11597656 21.42746094 100.421875 22.44140625 C103.92745185 25.33435802 106.27988565 28.70331503 108.8359375 32.43359375 C109.34382812 33.16449219 109.85171875 33.89539063 110.375 34.6484375 C120.5790126 50.37308255 123.80322627 70.48365548 120.65625 88.84765625 C116.24840425 108.1162391 107.25576642 124.89990834 90.3046875 135.88671875 C89.49 136.3971875 88.6753125 136.90765625 87.8359375 137.43359375 C87.10375 137.9440625 86.3715625 138.45453125 85.6171875 138.98046875 C66.42757245 151.72973355 44.9390672 150.45787909 22.8359375 150.43359375 C22.85164795 151.25972168 22.8673584 152.08584961 22.88354492 152.93701172 C22.93516487 156.04945487 22.97252372 159.16167733 23.00073242 162.27441406 C23.02295229 164.2651228 23.06110345 166.25563343 23.09960938 168.24609375 C23.16521966 176.90665156 22.98138624 185.57165746 17.6484375 192.80859375 C10.36003091 199.61110657 2.74203383 200.62736754 -6.8515625 200.68359375 C-8.14223633 200.71453125 -8.14223633 200.71453125 -9.45898438 200.74609375 C-17.81281839 200.79645597 -25.69869421 198.99681763 -32.1640625 193.43359375 C-36.06016614 187.37715059 -37.28545565 181.98291214 -37.31123352 174.82502747 C-37.31491021 174.16234082 -37.3185869 173.49965418 -37.322375 172.81688613 C-37.33338238 170.59772413 -37.33725066 168.378609 -37.34106445 166.15942383 C-37.34733136 164.56754407 -37.35397836 162.97566577 -37.36097717 161.38378906 C-37.38199399 156.15691136 -37.39237775 150.93003344 -37.40234375 145.703125 C-37.40639228 143.90170463 -37.41050923 142.10028442 -37.41469383 140.29886436 C-37.43374075 131.83437533 -37.44797249 123.36989499 -37.4563058 114.90538865 C-37.4660749 105.14441891 -37.49238795 95.38367613 -37.53280669 85.62278634 C-37.56299785 78.07188249 -37.57777754 70.52104358 -37.58108681 62.97008055 C-37.58343398 58.46323074 -37.59235091 53.95662354 -37.61754799 49.44983864 C-37.64088617 45.2070494 -37.645039 40.96466152 -37.63478661 36.72182465 C-37.63429252 35.16947021 -37.64057535 33.61709563 -37.65434265 32.06480217 C-37.72975248 23.05392648 -37.75379446 14.74852 -31.58296108 7.60267258 C-23.19738507 -0.78388243 -11.02447963 -0.02855177 0 0 Z M-27.1015625 13.43359375 C-29.19839391 17.38057051 -29.2896552 20.55036079 -29.29104614 24.95555115 C-29.29260613 25.62091119 -29.29416612 26.28627124 -29.29577339 26.97179371 C-29.29976834 29.2057462 -29.29659954 31.43963097 -29.29345703 33.67358398 C-29.29481175 35.27342773 -29.29659208 36.87327117 -29.29876709 38.47311401 C-29.30333337 42.82224755 -29.30155506 47.17135741 -29.298388 51.52049136 C-29.29585982 56.06835415 -29.29820327 60.61621489 -29.29977417 65.16407776 C-29.30159471 72.80315516 -29.29919278 80.4422229 -29.29443359 88.08129883 C-29.28899314 96.91597278 -29.29075252 105.75062365 -29.29626 114.58529705 C-29.30079674 122.1658264 -29.30143886 129.74634881 -29.29882133 137.32687908 C-29.2972614 141.8564012 -29.297057 146.38591246 -29.30035782 150.91543388 C-29.30324458 155.17450288 -29.30124595 159.4335421 -29.29546356 163.69260788 C-29.29414022 165.2567229 -29.29452289 166.82084042 -29.29672623 168.38495445 C-29.29945445 170.51822115 -29.29603605 172.65139213 -29.29104614 174.78465271 C-29.29066912 175.97908713 -29.29029209 177.17352156 -29.28990364 178.40415096 C-29.18442766 180.94333204 -28.91334289 183.020916 -28.1640625 185.43359375 C-27.5040625 185.43359375 -26.8440625 185.43359375 -26.1640625 185.43359375 C-26.1228125 186.03171875 -26.0815625 186.62984375 -26.0390625 187.24609375 C-25.3108669 189.65497717 -25.3108669 189.65497717 -22.80078125 191.05078125 C-17.826817 192.94206304 -13.37421891 192.83310128 -8.1015625 192.74609375 C-7.12123047 192.74931641 -6.14089844 192.75253906 -5.13085938 192.75585938 C1.18627247 192.7086846 5.56506667 192.38759888 10.5234375 188.12109375 C15.03013565 182.88357968 15.116006 178.24572371 15.03125 171.6328125 C15.02700516 170.37825005 15.02700516 170.37825005 15.02267456 169.0983429 C15.0115207 166.43911149 14.98642513 163.78022257 14.9609375 161.12109375 C14.95090149 159.31315592 14.94177673 157.50521279 14.93359375 155.69726562 C14.91159709 151.27591063 14.87710044 146.85481017 14.8359375 142.43359375 C15.99005127 142.4493042 17.14416504 142.46501465 18.33325195 142.48120117 C22.66260653 142.53597717 26.99193121 142.57011526 31.3215332 142.59838867 C33.18649466 142.61336764 35.05142155 142.63375799 36.91625977 142.65991211 C51.63042522 142.92420618 51.63042522 142.92420618 65.8359375 139.43359375 C67.45822266 138.88638672 67.45822266 138.88638672 69.11328125 138.328125 C79.43479411 134.12980039 88.7658551 128.13685422 96.8359375 120.43359375 C96.8359375 119.77359375 96.8359375 119.11359375 96.8359375 118.43359375 C97.4959375 118.43359375 98.1559375 118.43359375 98.8359375 118.43359375 C104.72539243 110.48998015 108.79004649 101.81789762 111.8359375 92.43359375 C112.08214844 91.68980469 112.32835937 90.94601562 112.58203125 90.1796875 C116.80209267 74.84194701 113.52327238 56.15907748 105.8359375 42.43359375 C103.95956395 39.3357582 101.95542261 36.36955597 99.8359375 33.43359375 C99.1346875 32.44359375 98.4334375 31.45359375 97.7109375 30.43359375 C91.27062114 23.10216443 82.85345743 18.14124991 74.1484375 13.99609375 C73.46040039 13.66625488 72.77236328 13.33641602 72.06347656 12.99658203 C61.5762208 8.22216026 51.33606069 8.12152228 40.05078125 8.1328125 C38.42371004 8.12891834 36.79663984 8.12458221 35.16957092 8.11982727 C31.77308849 8.11239898 28.37671008 8.11263247 24.98022461 8.11791992 C20.64394587 8.12372321 16.30809307 8.1067465 11.97188473 8.08357525 C8.61655724 8.06879582 5.26133152 8.06797169 1.90597725 8.07108498 C0.30770585 8.07057431 -1.29057162 8.06538484 -2.88881111 8.05527306 C-16.01991692 7.47979121 -16.01991692 7.47979121 -27.1015625 13.43359375 Z " fill="#E2C2C1" transform="translate(113.1640625,260.56640625)"/>
<path d="M0 0 C7.78916747 -0.18804852 13.67506029 1.06381595 20.76171875 4.23828125 C21.43460937 4.480625 22.1075 4.72296875 22.80078125 4.97265625 C33.24213384 9.18357211 41.16730697 19.53057533 45.67578125 29.44921875 C46.03414063 30.36960937 46.3925 31.29 46.76171875 32.23828125 C47.13425781 33.0890625 47.50679688 33.93984375 47.890625 34.81640625 C49.22562203 40.06060984 49.08992147 45.22410736 49.07421875 50.61328125 C49.09033203 51.7115625 49.10644531 52.80984375 49.12304688 53.94140625 C49.12696462 60.47621233 48.49862798 65.29734607 45.76171875 71.23828125 C45.37371094 72.13675781 44.98570312 73.03523438 44.5859375 73.9609375 C38.13910276 87.23122619 28.25269793 94.52554938 14.76171875 100.23828125 C1.87589909 103.65654531 -10.56176186 100.9796802 -22.0546875 94.69921875 C-32.79718957 87.77809528 -40.44139494 76.7046657 -44.05078125 64.48828125 C-47.27192811 49.09835734 -44.98466837 33.93115965 -37.23828125 20.23828125 C-34.61328125 17.23828125 -34.61328125 17.23828125 -32.23828125 15.23828125 C-31.68140625 14.64015625 -31.12453125 14.04203125 -30.55078125 13.42578125 C-29.23828125 12.23828125 -29.23828125 12.23828125 -27.23828125 12.23828125 C-26.90828125 11.24828125 -26.57828125 10.25828125 -26.23828125 9.23828125 C-23.90101537 7.72333212 -21.63254339 6.40184237 -19.17578125 5.11328125 C-18.20995117 4.57380859 -18.20995117 4.57380859 -17.22460938 4.0234375 C-11.44592282 0.94684865 -6.50907468 0.47895483 0 0 Z M-28.23828125 22.23828125 C-36.18338938 32.26377929 -38.18225802 44.76430249 -37.23828125 57.23828125 C-35.58757353 66.51605417 -32.68540856 73.38050889 -26.23828125 80.23828125 C-25.70332031 80.87378906 -25.16835938 81.50929688 -24.6171875 82.1640625 C-19.03182182 88.4191363 -10.4262263 92.85468774 -2.015625 93.4765625 C11.38425835 93.7355633 20.38912732 90.35920458 30.32421875 81.17578125 C39.56064178 71.78360067 41.04646157 61.26824796 41.08300781 48.72070312 C40.9964155 41.57332676 40.2597562 35.59062009 36.76171875 29.23828125 C36.18421875 28.18640625 35.60671875 27.13453125 35.01171875 26.05078125 C27.26303626 16.36492814 17.65984306 8.71105329 4.94921875 7.17578125 C-8.2178871 6.81002831 -19.3409659 12.75955717 -28.23828125 22.23828125 Z " fill="#E0C2C1" transform="translate(355.23828125,89.76171875)"/>
<path d="M0 0 C8.3840625 -0.12375 8.3840625 -0.12375 16.9375 -0.25 C18.68281006 -0.28641602 20.42812012 -0.32283203 22.22631836 -0.36035156 C30.25859622 -0.45808889 36.99462669 -0.44316277 44 4 C45.01876221 4.58273682 45.01876221 4.58273682 46.05810547 5.17724609 C50.13515734 7.58447075 52.19062675 10.16634894 53.56640625 14.6953125 C54.92666761 21.92553054 54.89766481 29.55782193 51 36 C46.10949354 41.00423917 39.84552411 45.10638193 32.6953125 45.45410156 C31.17172839 45.45311987 29.64802946 45.43174421 28.125 45.390625 C27.04605469 45.38458252 27.04605469 45.38458252 25.9453125 45.37841797 C23.29660992 45.35772498 20.64827525 45.30188195 18 45.25 C12.06 45.1675 6.12 45.085 0 45 C0 30.15 0 15.3 0 0 Z M8 9 C7.91232888 11.07262076 7.89304127 13.14820294 7.90234375 15.22265625 C7.90556641 16.48271484 7.90878906 17.74277344 7.91210938 19.04101562 C7.92046597 20.38151109 7.92893093 21.72200588 7.9375 23.0625 C7.9425134 24.40689942 7.94707658 25.7513006 7.95117188 27.09570312 C7.96300512 30.39717941 7.97949029 33.69856803 8 37 C12.21285399 38.40428466 16.21141495 38.22437686 20.625 38.25 C21.48996094 38.270625 22.35492188 38.29125 23.24609375 38.3125 C30.69437157 38.35716733 37.21950277 37.37500805 43 32.4375 C46.40934286 28.28236339 46.45863303 25.11298127 46.41015625 19.8359375 C45.86049272 16.03540683 44.45814323 14.10947243 41.8984375 11.33984375 C37.63616583 8.33169728 33.08519941 7.74875547 27.98046875 7.76953125 C26.87638672 7.77146484 25.77230469 7.77339844 24.63476562 7.77539062 C23.49716797 7.78763672 22.35957031 7.79988281 21.1875 7.8125 C20.03056641 7.81314453 18.87363281 7.81378906 17.68164062 7.81445312 C12.4818399 7.34141476 12.4818399 7.34141476 8 9 Z " fill="#E2C2C1" transform="translate(128,313)"/>
<path d="M0 0 C0.33 0 0.66 0 1 0 C1.33 53.46 1.66 106.92 2 162 C2.66 162 3.32 162 4 162 C4.33 162.99 4.66 163.98 5 165 C13.02205984 170.49975734 23.69297554 169.79723258 33 170 C32.505 170.45375 32.01 170.9075 31.5 171.375 C29.77390663 172.87635519 29.77390663 172.87635519 30 175 C30.99 175.99 30.99 175.99 32 177 C29.02026385 177.08184423 26.04283168 177.14089764 23.0625 177.1875 C22.23169922 177.21263672 21.40089844 177.23777344 20.54492188 177.26367188 C12.24352092 177.36057539 4.42021286 175.52436921 -2 170 C-3.584751 167.42786521 -4.84858754 164.79048196 -6 162 C-5.319375 161.4121875 -5.319375 161.4121875 -4.625 160.8125 C-1.07564893 156.85360843 -0.74673943 152.70821393 -0.7215271 147.55229187 C-0.71036362 146.24963882 -0.69920013 144.94698578 -0.68769836 143.6048584 C-0.68533361 142.16845732 -0.68315793 140.73205592 -0.68115234 139.2956543 C-0.67185063 137.77768929 -0.66168159 136.25972938 -0.65071106 134.74177551 C-0.62342435 130.62651118 -0.6082656 126.51128106 -0.59528303 122.39595008 C-0.57964669 118.09309452 -0.55285806 113.79030875 -0.5272522 109.48750305 C-0.48047334 101.34202335 -0.4437249 93.1965305 -0.41057932 85.05098516 C-0.37235164 75.77651644 -0.32294316 66.50211783 -0.27259517 57.22770822 C-0.16928859 38.1518568 -0.08002403 19.07596258 0 0 Z " fill="#E5CBCA" transform="translate(83,284)"/>
<path d="M0 0 C-2 2 -2 2 -3.87939453 2.13525391 C-4.62302246 2.08288574 -5.36665039 2.03051758 -6.1328125 1.9765625 C-6.93847656 1.925 -7.74414062 1.8734375 -8.57421875 1.8203125 C-9.41597656 1.75585938 -10.25773437 1.69140625 -11.125 1.625 C-11.97449219 1.56828125 -12.82398437 1.5115625 -13.69921875 1.453125 C-15.8001345 1.31149023 -17.90017334 1.15695674 -20 1 C-20 0.67 -20 0.34 -20 0 C-17.04196565 -0.19421438 -14.08379837 -0.38066186 -11.125 -0.5625 C-10.28324219 -0.61857422 -9.44148438 -0.67464844 -8.57421875 -0.73242188 C-7.76855469 -0.78076172 -6.96289062 -0.82910156 -6.1328125 -0.87890625 C-5.01737061 -0.94960327 -5.01737061 -0.94960327 -3.87939453 -1.02172852 C-2 -1 -2 -1 0 0 Z M-4 2 C-3.34 2 -2.68 2 -2 2 C-1.67 3.65 -1.34 5.3 -1 7 C-1.99 7.495 -1.99 7.495 -3 8 C-3.99 7.34 -4.98 6.68 -6 6 C-5.34 4.68 -4.68 3.36 -4 2 Z " fill="#E8CDCC" transform="translate(118,453)"/>
<path d="M0 0 C0.99 0.495 0.99 0.495 2 1 C1.01 1.495 1.01 1.495 0 2 C0 1.34 0 0.68 0 0 Z M4 3 C1.18752345 4.87498437 -1.22357209 5.95940338 -4.375 7.125 C-5.31085938 7.47820312 -6.24671875 7.83140625 -7.2109375 8.1953125 C-9.96579739 8.99013202 -12.15223068 9.15533287 -15 9 C-11.41247258 7.13448574 -7.72187807 5.57464072 -4 4 C-4.33 3.34 -4.66 2.68 -5 2 C-1.79937313 0.39968656 0.72271806 1.96826309 4 3 Z " fill="#DBBBBB" transform="translate(393,232)"/>
<path d="M0 0 C0.66 0.66 1.32 1.32 2 2 C4.06874034 2.6425235 4.06874034 2.6425235 6 3 C5.67 3.66 5.34 4.32 5 5 C-1.93 4.67 -8.86 4.34 -16 4 C-16 3.67 -16 3.34 -16 3 C-10.72 3 -5.44 3 0 3 C0 2.01 0 1.02 0 0 Z " fill="#E6CFCE" transform="translate(203,44)"/>
<path d="M0 0 C3.39914975 1.13304992 4.05254451 2.12518475 6 5 C5.34 5 4.68 5 4 5 C3.67 5.99 3.34 6.98 3 8 C2.34 8 1.68 8 1 8 C0.01 6.02 -0.98 4.04 -2 2 C-1.34 2 -0.68 2 0 2 C0 1.34 0 0.68 0 0 Z " fill="#E6C7C7" transform="translate(214,50)"/>
<path d="M0 0 C0.6875 1.6875 0.6875 1.6875 1 4 C-0.79812589 8.0957312 -2.92515752 10.16632089 -7 12 C-7.99 11.67 -8.98 11.34 -10 11 C-9.443125 10.608125 -8.88625 10.21625 -8.3125 9.8125 C-3.0742816 5.71008736 -3.0742816 5.71008736 0 0 Z " fill="#E3CFCB" transform="translate(215,221)"/>
<path d="M0 0 C1.1446875 0.495 1.1446875 0.495 2.3125 1 C4.99069135 2.17436686 4.99069135 2.17436686 8 2 C7.835 2.61875 7.67 3.2375 7.5 3.875 C6.92365356 5.96063386 6.92365356 5.96063386 7 8 C7.66 8.33 8.32 8.66 9 9 C8.01 9 7.02 9 6 9 C4.39453125 7.03125 4.39453125 7.03125 2.8125 4.5 C2.28269531 3.6646875 1.75289063 2.829375 1.20703125 1.96875 C0.80871094 1.3190625 0.41039063 0.669375 0 0 Z " fill="#D7BEBD" transform="translate(110,154)"/>
<path d="M0 0 C2.03144641 0.93446535 4.03533587 1.93224776 6 3 C6 3.99 6 4.98 6 6 C5.01 6.495 5.01 6.495 4 7 C3.34 6.67 2.68 6.34 2 6 C2 5.01 2 4.02 2 3 C0.68 2.34 -0.64 1.68 -2 1 C-1.34 0.67 -0.68 0.34 0 0 Z " fill="#E4BEBB" transform="translate(164,221)"/>
<path d="M0 0 C-5.14285714 4.42857143 -5.14285714 4.42857143 -9 5 C-8 2 -8 2 -5.625 0.25 C-3 -1 -3 -1 0 0 Z M-11 5 C-10.34 5.33 -9.68 5.66 -9 6 C-9.66 6.66 -10.32 7.32 -11 8 C-11 7.01 -11 6.02 -11 5 Z " fill="#E1CBC9" transform="translate(337,97)"/>
<path d="M0 0 C2.35171131 0.59861742 4.6859378 1.26924352 7 2 C7.33 2.66 7.66 3.32 8 4 C7.34 4 6.68 4 6 4 C5.67 4.66 5.34 5.32 5 6 C3.31237149 4.3545622 1.6459651 2.68711423 0 1 C0 0.67 0 0.34 0 0 Z M-1 2 C-0.01 2.495 -0.01 2.495 1 3 C0.67 3.66 0.34 4.32 0 5 C-0.33 4.01 -0.66 3.02 -1 2 Z " fill="#DCBCBB" transform="translate(89,41)"/>
<path d="M0 0 C2.6875 0.875 2.6875 0.875 5 2 C4.01 2.33 3.02 2.66 2 3 C2.33 3.99 2.66 4.98 3 6 C2.34 6 1.68 6 1 6 C0.67 5.34 0.34 4.68 0 4 C-0.66 4.66 -1.32 5.32 -2 6 C-2.33 4.68 -2.66 3.36 -3 2 C-2.01 1.34 -1.02 0.68 0 0 Z " fill="#DABDBA" transform="translate(267,175)"/>
<path d="M0 0 C0.33 0.99 0.66 1.98 1 3 C-0.9375 5.6875 -0.9375 5.6875 -3 8 C-3.99 7.67 -4.98 7.34 -6 7 C-6 6.34 -6 5.68 -6 5 C-5.34 4.67 -4.68 4.34 -4 4 C-3.34 3.01 -2.68 2.02 -2 1 C-1.67 1.33 -1.34 1.66 -1 2 C-0.67 1.34 -0.34 0.68 0 0 Z " fill="#DCB9B8" transform="translate(424,307)"/>
<path d="M0 0 C0.66 0.33 1.32 0.66 2 1 C1.67 1.66 1.34 2.32 1 3 C0.01 3.33 -0.98 3.66 -2 4 C-3.20882096 6.00016466 -3.20882096 6.00016466 -4 8 C-4.99 8 -5.98 8 -7 8 C-6.02133662 6.85373678 -5.04205413 5.70800212 -4.0625 4.5625 C-3.51722656 3.92441406 -2.97195313 3.28632813 -2.41015625 2.62890625 C-1.63204305 1.73008851 -0.84063472 0.84063472 0 0 Z " fill="#FBF2F0" transform="translate(394,172)"/>
<path d="M0 0 C-0.99 1.32 -1.98 2.64 -3 4 C-5.97 3.505 -5.97 3.505 -9 3 C-6.40821726 0.40821726 -3.54324677 -1.77162338 0 0 Z " fill="#FBF1EE" transform="translate(331,50)"/>
</svg>
