<?xml version="1.0" encoding="UTF-8"?>
<svg version="1.1" xmlns="http://www.w3.org/2000/svg" width="200" height="200">
<path d="M0 0 C9.23475852 0.59579087 19.56274184 2.26345786 27 8 C28.80087513 9.20505654 30.61420321 10.39164505 32.4375 11.5625 C33.36433594 12.16191406 34.29117188 12.76132812 35.24609375 13.37890625 C37.93402552 15.05830314 37.93402552 15.05830314 40.78515625 16.09375 C43.60424262 17.2472386 43.70779449 18.33482614 45 21 C45.845625 21.495 46.69125 21.99 47.5625 22.5 C50 24 50 24 50.625 26.125 C50.74875 26.74375 50.8725 27.3625 51 28 C51.99 28.33 52.98 28.66 54 29 C59.55199432 36.31150646 59.76989782 44.28267985 59.8125 53.125 C59.83763672 54.36765625 59.86277344 55.6103125 59.88867188 56.890625 C59.94707144 59.92740262 59.98369822 62.96275423 60 66 C61.32 66.66 62.64 67.32 64 68 C64 68.99 64 69.98 64 71 C64.66 71.66 65.32 72.32 66 73 C66.265625 74.875 66.265625 74.875 66.25 77 C66.25773437 78.051875 66.25773437 78.051875 66.265625 79.125 C66 81 66 81 64 83 C57.64705882 87 57.64705882 87 53 87 C53.268125 87.804375 53.53625 88.60875 53.8125 89.4375 C54.08317735 94.58036957 52.02440136 97.92713951 49 102 C46.4375 103.75 46.4375 103.75 44 105 C41.72462308 107.57183314 41.72462308 107.57183314 40 110 C40.763125 110.598125 41.52625 111.19625 42.3125 111.8125 C49.62712439 117.76626404 49.62712439 117.76626404 50.4140625 122.48046875 C50.51847656 123.82044922 50.51847656 123.82044922 50.625 125.1875 C50.73714844 126.53908203 50.73714844 126.53908203 50.8515625 127.91796875 C50.90054688 128.60503906 50.94953125 129.29210937 51 130 C51.66 130 52.32 130 53 130 C53.9008511 134.61149968 54.13434452 138.9918777 54.125 143.6875 C54.12757813 144.99074219 54.13015625 146.29398438 54.1328125 147.63671875 C54 151 54 151 53 154 C53.66 154.66 54.32 155.32 55 156 C55.29424184 158.54013753 55.46984203 160.97848715 55.5546875 163.52734375 C55.58354034 164.27206436 55.61239319 165.01678497 55.64212036 165.78407288 C55.69920622 167.36002001 55.75097562 168.93616731 55.79785156 170.51245117 C55.87462438 172.92569283 55.98341244 175.33613681 56.09375 177.74804688 C56.1452014 179.27858081 56.19474414 180.80918034 56.2421875 182.33984375 C56.29655472 183.42276955 56.29655472 183.42276955 56.35202026 184.52757263 C56.39404297 186.57006836 56.39404297 186.57006836 56 190 C53.98486328 191.91625977 53.98486328 191.91625977 52 193 C52 193.33 52 193.66 52 194 C29.23 194 6.46 194 -17 194 C-18.90446111 190.19107779 -19.27823262 188.65302151 -19.4140625 184.578125 C-19.47207031 183.04091797 -19.47207031 183.04091797 -19.53125 181.47265625 C-19.5621875 180.40917969 -19.593125 179.34570312 -19.625 178.25 C-19.68300781 176.63158203 -19.68300781 176.63158203 -19.7421875 174.98046875 C-19.83634631 172.32048225 -19.92197387 169.6605006 -20 167 C-20.66 167 -21.32 167 -22 167 C-21.67 165.35 -21.34 163.7 -21 162 C-21.89460938 161.97421875 -22.78921875 161.9484375 -23.7109375 161.921875 C-33.90780343 161.4435572 -42.24517264 160.0278123 -50 153 C-50.66 152.67 -51.32 152.34 -52 152 C-52.33 151.01 -52.66 150.02 -53 149 C-54.27875 148.9175 -55.5575 148.835 -56.875 148.75 C-59.09765625 148.4765625 -59.09765625 148.4765625 -61 148 C-62.3125 146.125 -62.3125 146.125 -63 144 C-64.45833358 142.37485532 -64.45833358 142.37485532 -66 141 C-68 139 -68 139 -68.1875 135.125 C-68.120382 132.28539226 -67.90494365 129.71483095 -67 127 C-68.670625 126.5359375 -68.670625 126.5359375 -70.375 126.0625 C-74 125 -74 125 -76 124 C-76 123.34 -76 122.68 -76 122 C-76.66 122 -77.32 122 -78 122 C-77.60298154 119.12161616 -77.23861838 118.19523322 -74.9375 116.3125 C-74.298125 115.879375 -73.65875 115.44625 -73 115 C-73 114.67 -73 114.34 -73 114 C-69.20839703 113.94213332 -65.41690689 113.90644946 -61.625 113.875 C-60.54476562 113.85824219 -59.46453125 113.84148437 -58.3515625 113.82421875 C-57.3203125 113.81777344 -56.2890625 113.81132813 -55.2265625 113.8046875 C-53.79691162 113.78897705 -53.79691162 113.78897705 -52.33837891 113.77294922 C-50 114 -50 114 -48 116 C-47.236875 116.598125 -46.47375 117.19625 -45.6875 117.8125 C-41.55621167 121.17517654 -38.31937186 124.19558686 -36 129 C-35.01 129.66 -34.02 130.32 -33 131 C-31.42580681 128.99648139 -30.09912767 127.24073864 -29.125 124.875 C-27.57655685 122.29426142 -25.7551583 122.07518373 -23 121 C-20.87701714 118.64955469 -20.01003575 117.03010726 -19 114 C-19.78375 113.9175 -20.5675 113.835 -21.375 113.75 C-22.674375 113.37875 -22.674375 113.37875 -24 113 C-24.66666667 111.66666667 -25.33333333 110.33333333 -26 109 C-26.94875 108.54625 -27.8975 108.0925 -28.875 107.625 C-32.73134651 105.61969981 -34.00785929 103.83671544 -36 100 C-36.75 96.125 -36.75 96.125 -37 93 C-37.66 93 -38.32 93 -39 93 C-39.86575608 89.99399481 -40.14039702 87.28639233 -40.17700195 84.16235352 C-40.19625481 82.72419029 -40.19625481 82.72419029 -40.21589661 81.25697327 C-40.22328354 80.22471115 -40.23067047 79.19244904 -40.23828125 78.12890625 C-40.246353 77.05559555 -40.25442474 75.98228485 -40.26274109 74.87644958 C-40.27657083 72.60099902 -40.28729794 70.32552781 -40.29516602 68.05004883 C-40.30664223 65.741067 -40.32702406 63.43211079 -40.35668945 61.12329102 C-40.74063576 31.22910285 -40.74063576 31.22910285 -33.96704102 23.75756836 C-32.28242723 22.2523512 -30.58681069 20.93303186 -28.75 19.625 C-25.66937198 17.24596439 -25.66937198 17.24596439 -25.625 13.6875 C-25.74875 12.800625 -25.8725 11.91375 -26 11 C-24.35 10.67 -22.7 10.34 -21 10 C-21 9.34 -21 8.68 -21 8 C-20.38125 7.938125 -19.7625 7.87625 -19.125 7.8125 C-18.42375 7.544375 -17.7225 7.27625 -17 7 C-15.84668432 4.49195108 -15.84668432 4.49195108 -15 2 C-14.00097656 1.93941406 -13.00195312 1.87882813 -11.97265625 1.81640625 C-10.68230469 1.73261719 -9.39195313 1.64882812 -8.0625 1.5625 C-6.77472656 1.48128906 -5.48695312 1.40007813 -4.16015625 1.31640625 C-1.13976043 1.35080812 -1.13976043 1.35080812 0 0 Z M-36 29 C-35 31 -35 31 -35 31 Z M-37 32 C-36 35 -36 35 -36 35 Z M55 34 C56 36 56 36 56 36 Z M-38 36 C-38 41.28 -38 46.56 -38 52 C-37.67 52 -37.34 52 -37 52 C-37 46.72 -37 41.44 -37 36 C-37.33 36 -37.66 36 -38 36 Z M56 37 C57 40 57 40 57 40 Z M57 40 C58 42 58 42 58 42 Z M-39 53 C-38 56 -38 56 -38 56 Z M-38 61 C-37 63 -37 63 -37 63 Z M-39 63 C-39 71.25 -39 79.5 -39 88 C-38.67 88 -38.34 88 -38 88 C-38 79.75 -38 71.5 -38 63 C-38.33 63 -38.66 63 -39 63 Z M64 74 C64 75.98 64 77.96 64 80 C64.33 80 64.66 80 65 80 C65 78.02 65 76.04 65 74 C64.67 74 64.34 74 64 74 Z M52 89 C53 92 53 92 53 92 Z M50 94 C51 96 51 96 51 96 Z M48 121 C49 123 49 123 49 123 Z M-69 125 C-65 126 -65 126 -65 126 Z M-66 128 C-65 131 -65 131 -65 131 Z M-67 132 C-67 133.98 -67 135.96 -67 138 C-66.67 138 -66.34 138 -66 138 C-66 136.02 -66 134.04 -66 132 C-66.33 132 -66.66 132 -67 132 Z M-25 160 C-21 161 -21 161 -21 161 Z M-20 161 C-19 164 -19 164 -19 164 Z M54 184 C54 185.98 54 187.96 54 190 C54.33 190 54.66 190 55 190 C55 188.02 55 186.04 55 184 C54.67 184 54.34 184 54 184 Z M-8 192 C-8 192.33 -8 192.66 -8 193 C-0.08 193 7.84 193 16 193 C16 192.67 16 192.34 16 192 C8.08 192 0.16 192 -8 192 Z M17 192 C17 192.33 17 192.66 17 193 C20.63 193 24.26 193 28 193 C28 192.67 28 192.34 28 192 C24.37 192 20.74 192 17 192 Z M29 192 C29 192.33 29 192.66 29 193 C30.65 193 32.3 193 34 193 C34 192.67 34 192.34 34 192 C32.35 192 30.7 192 29 192 Z " fill="#FBBD99" transform="translate(106,4)"/>
<path d="M0 0 C5.1112449 1.83480586 8.48159139 5.44113709 11.4375 9.875 C11.8515625 12.35546875 11.8515625 12.35546875 12.0625 15.0625 C12.17464844 16.41408203 12.17464844 16.41408203 12.2890625 17.79296875 C12.33804688 18.48003906 12.38703125 19.16710937 12.4375 19.875 C13.0975 19.875 13.7575 19.875 14.4375 19.875 C15.3383511 24.48649968 15.57184452 28.8668777 15.5625 33.5625 C15.56507813 34.86574219 15.56765625 36.16898438 15.5703125 37.51171875 C15.4375 40.875 15.4375 40.875 14.4375 43.875 C15.0975 44.535 15.7575 45.195 16.4375 45.875 C16.73174184 48.41513753 16.90734203 50.85348715 16.9921875 53.40234375 C17.02104034 54.14706436 17.04989319 54.89178497 17.07962036 55.65907288 C17.13670622 57.23502001 17.18847562 58.81116731 17.23535156 60.38745117 C17.31212438 62.80069283 17.42091244 65.21113681 17.53125 67.62304688 C17.5827014 69.15358081 17.63224414 70.68418034 17.6796875 72.21484375 C17.73405472 73.29776955 17.73405472 73.29776955 17.78952026 74.40257263 C17.83154297 76.44506836 17.83154297 76.44506836 17.4375 79.875 C15.42236328 81.79125977 15.42236328 81.79125977 13.4375 82.875 C13.4375 83.205 13.4375 83.535 13.4375 83.875 C-9.3325 83.875 -32.1025 83.875 -55.5625 83.875 C-57.46696111 80.06607779 -57.84073262 78.52802151 -57.9765625 74.453125 C-58.03457031 72.91591797 -58.03457031 72.91591797 -58.09375 71.34765625 C-58.1246875 70.28417969 -58.155625 69.22070312 -58.1875 68.125 C-58.24550781 66.50658203 -58.24550781 66.50658203 -58.3046875 64.85546875 C-58.39884631 62.19548225 -58.48447387 59.5355006 -58.5625 56.875 C-59.2225 56.875 -59.8825 56.875 -60.5625 56.875 C-60.2325 55.225 -59.9025 53.575 -59.5625 51.875 C-60.90441406 51.83632812 -60.90441406 51.83632812 -62.2734375 51.796875 C-72.47030343 51.3185572 -80.80767264 49.9028123 -88.5625 42.875 C-89.2225 42.545 -89.8825 42.215 -90.5625 41.875 C-90.8925 40.885 -91.2225 39.895 -91.5625 38.875 C-92.84125 38.7925 -94.12 38.71 -95.4375 38.625 C-97.66015625 38.3515625 -97.66015625 38.3515625 -99.5625 37.875 C-100.875 36 -100.875 36 -101.5625 33.875 C-103.02083358 32.24985532 -103.02083358 32.24985532 -104.5625 30.875 C-106.5625 28.875 -106.5625 28.875 -106.75 25 C-106.682882 22.16039226 -106.46744365 19.58983095 -105.5625 16.875 C-106.67625 16.565625 -107.79 16.25625 -108.9375 15.9375 C-112.5625 14.875 -112.5625 14.875 -114.5625 13.875 C-114.5625 13.215 -114.5625 12.555 -114.5625 11.875 C-115.2225 11.875 -115.8825 11.875 -116.5625 11.875 C-116.16548154 8.99661616 -115.80111838 8.07023322 -113.5 6.1875 C-112.860625 5.754375 -112.22125 5.32125 -111.5625 4.875 C-111.5625 4.545 -111.5625 4.215 -111.5625 3.875 C-107.77089703 3.81713332 -103.97940689 3.78144946 -100.1875 3.75 C-99.10726562 3.73324219 -98.02703125 3.71648437 -96.9140625 3.69921875 C-95.8828125 3.69277344 -94.8515625 3.68632813 -93.7890625 3.6796875 C-92.35941162 3.66397705 -92.35941162 3.66397705 -90.90087891 3.64794922 C-88.5625 3.875 -88.5625 3.875 -86.5625 5.875 C-85.799375 6.473125 -85.03625 7.07125 -84.25 7.6875 C-80.11871167 11.05017654 -76.88187186 14.07058686 -74.5625 18.875 C-73.5725 19.535 -72.5825 20.195 -71.5625 20.875 C-69.98830681 18.87148139 -68.66162767 17.11573864 -67.6875 14.75 C-66.13905685 12.16926142 -64.3176583 11.95018373 -61.5625 10.875 C-59.83729815 8.99152637 -59.83729815 8.99152637 -58.5625 6.875 C-57.9025 5.885 -57.2425 4.895 -56.5625 3.875 C-50.0140403 4.6305915 -50.0140403 4.6305915 -47.68164062 5.89306641 C-43.22243795 7.95930064 -37.89089042 7.24459912 -33.0625 7.25 C-31.94101563 7.27449219 -30.81953125 7.29898438 -29.6640625 7.32421875 C-20.74912249 7.35510191 -12.58080102 5.94976018 -4.88085938 1.23193359 C-2.5625 -0.125 -2.5625 -0.125 0 0 Z M9.4375 10.875 C10.4375 12.875 10.4375 12.875 10.4375 12.875 Z M-107.5625 14.875 C-103.5625 15.875 -103.5625 15.875 -103.5625 15.875 Z M-104.5625 17.875 C-103.5625 20.875 -103.5625 20.875 -103.5625 20.875 Z M-105.5625 21.875 C-105.5625 23.855 -105.5625 25.835 -105.5625 27.875 C-105.2325 27.875 -104.9025 27.875 -104.5625 27.875 C-104.5625 25.895 -104.5625 23.915 -104.5625 21.875 C-104.8925 21.875 -105.2225 21.875 -105.5625 21.875 Z M-63.5625 49.875 C-59.5625 50.875 -59.5625 50.875 -59.5625 50.875 Z M-58.5625 50.875 C-57.5625 53.875 -57.5625 53.875 -57.5625 53.875 Z M15.4375 73.875 C15.4375 75.855 15.4375 77.835 15.4375 79.875 C15.7675 79.875 16.0975 79.875 16.4375 79.875 C16.4375 77.895 16.4375 75.915 16.4375 73.875 C16.1075 73.875 15.7775 73.875 15.4375 73.875 Z M-46.5625 81.875 C-46.5625 82.205 -46.5625 82.535 -46.5625 82.875 C-38.6425 82.875 -30.7225 82.875 -22.5625 82.875 C-22.5625 82.545 -22.5625 82.215 -22.5625 81.875 C-30.4825 81.875 -38.4025 81.875 -46.5625 81.875 Z M-21.5625 81.875 C-21.5625 82.205 -21.5625 82.535 -21.5625 82.875 C-17.9325 82.875 -14.3025 82.875 -10.5625 82.875 C-10.5625 82.545 -10.5625 82.215 -10.5625 81.875 C-14.1925 81.875 -17.8225 81.875 -21.5625 81.875 Z M-9.5625 81.875 C-9.5625 82.205 -9.5625 82.535 -9.5625 82.875 C-7.9125 82.875 -6.2625 82.875 -4.5625 82.875 C-4.5625 82.545 -4.5625 82.215 -4.5625 81.875 C-6.2125 81.875 -7.8625 81.875 -9.5625 81.875 Z " fill="#7DA8D8" transform="translate(144.5625,114.125)"/>
<path d="M0 0 C9.23475852 0.59579087 19.56274184 2.26345786 27 8 C28.80087513 9.20505654 30.61420321 10.39164505 32.4375 11.5625 C33.36433594 12.16191406 34.29117188 12.76132812 35.24609375 13.37890625 C37.93402552 15.05830314 37.93402552 15.05830314 40.78515625 16.09375 C43.60424262 17.2472386 43.70779449 18.33482614 45 21 C45.845625 21.495 46.69125 21.99 47.5625 22.5 C50 24 50 24 50.625 26.125 C50.74875 26.74375 50.8725 27.3625 51 28 C52.485 28.495 52.485 28.495 54 29 C59.41741871 36.20439756 59.76884646 43.92339416 59.8125 52.625 C59.83763672 53.81996094 59.86277344 55.01492187 59.88867188 56.24609375 C59.94703789 59.16439458 59.98368857 62.08121278 60 65 C57.60429272 66.19785364 55.72845473 66.28077318 53.0625 66.5 C50.10840763 66.74363648 47.83108535 67.05630488 45 68 C42.92528248 64.88792373 42.22450956 62.52352421 41.25 58.9375 C38.77302829 50.68706635 35.46616762 42.84291954 28 38 C26.515 37.01 26.515 37.01 25 36 C21.12202338 35.56613908 21.12202338 35.56613908 19.25 37.5 C18.8375 37.995 18.425 38.49 18 39 C17.15695313 38.566875 16.31390625 38.13375 15.4453125 37.6875 C14.34960938 37.130625 13.25390625 36.57375 12.125 36 C11.03445312 35.443125 9.94390625 34.88625 8.8203125 34.3125 C6.21624918 32.85935906 6.21624918 32.85935906 4 33 C3.34 34.32 2.68 35.64 2 37 C-3.28137429 36.48474397 -6.57221156 34.74522883 -11 32 C-11.99 34.475 -11.99 34.475 -13 37 C-17.72065967 35.45730076 -22.41664092 33.92205381 -27 32 C-31.33034194 35.84919283 -33.6560756 39.72289646 -36 45 C-39 43 -39 43 -39.79296875 41.28125 C-40.0853719 38.05929826 -39.26338555 35.58242452 -38.3125 32.5 C-37.97863281 31.3759375 -37.64476563 30.251875 -37.30078125 29.09375 C-35.42779073 24.63906984 -32.59403872 22.36242151 -28.75 19.625 C-25.66937198 17.24596439 -25.66937198 17.24596439 -25.625 13.6875 C-25.74875 12.800625 -25.8725 11.91375 -26 11 C-24.35 10.67 -22.7 10.34 -21 10 C-21 9.34 -21 8.68 -21 8 C-20.38125 7.938125 -19.7625 7.87625 -19.125 7.8125 C-18.073125 7.4103125 -18.073125 7.4103125 -17 7 C-15.84668432 4.49195108 -15.84668432 4.49195108 -15 2 C-14.00097656 1.93941406 -13.00195312 1.87882813 -11.97265625 1.81640625 C-10.68230469 1.73261719 -9.39195313 1.64882812 -8.0625 1.5625 C-6.77472656 1.48128906 -5.48695312 1.40007813 -4.16015625 1.31640625 C-1.13976043 1.35080812 -1.13976043 1.35080812 0 0 Z M-36 29 C-35 31 -35 31 -35 31 Z M-37 32 C-36 35 -36 35 -36 35 Z M55 34 C56 36 56 36 56 36 Z M56 37 C57 40 57 40 57 40 Z M57 40 C58 42 58 42 58 42 Z " fill="#171817" transform="translate(106,4)"/>
<path d="M0 0 C0 0.66 0 1.32 0 2 C1.60875 2.061875 1.60875 2.061875 3.25 2.125 C7 3 7 3 9.5 5.875 C11 9 11 9 10 12 C9.86478741 15.51552728 9.96468662 18.77046304 10.5 22.25 C10.7475 24.10625 10.7475 24.10625 11 26 C11.13792969 26.84820312 11.27585938 27.69640625 11.41796875 28.5703125 C11.85192533 33.08597657 11.88732022 35.84772846 9.05078125 39.53125 C6.47949936 41.89383673 3.83251681 43.9604244 1 46 C0.34386719 46.55042969 -0.31226563 47.10085937 -0.98828125 47.66796875 C-6.77798617 52.09393161 -12.99005139 51.77513855 -20 51 C-26.3269778 49.76975432 -31.57096025 47.42265549 -37 44 C-36.41068228 40.64825544 -35.30386572 38.91304802 -33 36.4375 C-29.20055235 32.33665386 -28.5949619 28.76139853 -28.6484375 23.2890625 C-29.25501802 19.33954932 -31.10459819 17.69798805 -34 15 C-36.14980497 13.62745412 -36.14980497 13.62745412 -38 13 C-32.5776699 8.93325243 -32.5776699 8.93325243 -30.140625 9.21484375 C-26.51527587 10.54457947 -23.11045 12.32145206 -19.65625 14.0390625 C-16.73893798 15.09444303 -15.78743754 15.26341173 -13 14 C-10.81032363 12.38522971 -10.81032363 12.38522971 -8.75 10.4375 C-8.04359375 9.79683594 -7.3371875 9.15617187 -6.609375 8.49609375 C-6.07828125 8.00238281 -5.5471875 7.50867188 -5 7 C-5.66 5.68 -6.32 4.36 -7 3 C-2.25 0 -2.25 0 0 0 Z " fill="#7BA7D7" transform="translate(145,115)"/>
<path d="M0 0 C3.79160297 -0.05786668 7.58309311 -0.09355054 11.375 -0.125 C12.45523438 -0.14175781 13.53546875 -0.15851563 14.6484375 -0.17578125 C15.6796875 -0.18222656 16.7109375 -0.18867187 17.7734375 -0.1953125 C19.20308838 -0.21102295 19.20308838 -0.21102295 20.66162109 -0.22705078 C23 0 23 0 25 2 C25.78375 2.61875 26.5675 3.2375 27.375 3.875 C29.75043409 5.79797046 31.88093201 7.80244801 34 10 C33.34 10.33 32.68 10.66 32 11 C31.60578491 13.9124487 31.60578491 13.9124487 31.5 17.3125 C31.16795874 24.72532106 31.16795874 24.72532106 29 28 C24.14615287 31.44878612 19.93042307 32.40381135 13.96484375 32.359375 C10.61756422 31.74714892 9.06299934 29.54841095 7 27 C6.34 26.34 5.68 25.68 5 25 C4.79774977 20.82016197 4.66349142 17.00952575 6 13 C4.88625 12.690625 3.7725 12.38125 2.625 12.0625 C-1 11 -1 11 -3 10 C-3 9.34 -3 8.68 -3 8 C-3.66 8 -4.32 8 -5 8 C-4.60298154 5.12161616 -4.23861838 4.19523322 -1.9375 2.3125 C-0.9784375 1.6628125 -0.9784375 1.6628125 0 1 C0 0.67 0 0.34 0 0 Z M4 11 C8 12 8 12 8 12 Z M7 14 C8 17 8 17 8 17 Z M6 18 C6 19.98 6 21.96 6 24 C6.33 24 6.66 24 7 24 C7 22.02 7 20.04 7 18 C6.67 18 6.34 18 6 18 Z " fill="#F8D0AD" transform="translate(33,118)"/>
<path d="M0 0 C15.64394353 0.02148261 15.64394353 0.02148261 21.5625 5.875 C24.05673781 10.21980135 24.4295856 13.35475104 23.5 18.25 C21.51965705 23.37677616 18.19114072 27.39404089 13.6875 30.5 C9.01733415 32.10119972 5.53805159 31.74980262 1.125 29.625 C-1.5 27.25 -1.5 27.25 -2.5 24.375 C-2.5 20.90456726 -1.6528045 18.50497742 -0.5 15.25 C-0.33201531 11.99955291 -0.33201531 11.99955291 -0.5 9.25 C-3.47 8.26 -6.44 7.27 -9.5 6.25 C-9.542721 4.58388095 -9.54063832 2.91617115 -9.5 1.25 C-7.38918168 -0.86081832 -2.90678895 0.00977845 0 0 Z " fill="#F9C9A0" transform="translate(93.5,126.75)"/>
<path d="M0 0 C2.64 0.33 5.28 0.66 8 1 C8 1.66 8 2.32 8 3 C8.969375 2.979375 9.93875 2.95875 10.9375 2.9375 C14 3 14 3 15 4 C15.22976424 6.28839145 15.39574322 8.58323836 15.53515625 10.87890625 C15.57813339 11.5655687 15.62111053 12.25223114 15.66539001 12.95970154 C15.80211912 15.1603912 15.93237573 17.36141087 16.0625 19.5625 C16.15387195 21.05145843 16.24566333 22.54039118 16.33789062 24.02929688 C16.56346771 27.6859121 16.78324029 31.34285032 17 35 C13.25878906 36.09716797 13.25878906 36.09716797 10.9296875 35.22265625 C9.91261719 34.64837891 9.91261719 34.64837891 8.875 34.0625 C6.10056027 32.42358298 6.10056027 32.42358298 3 32 C2.34 33.32 1.68 34.64 1 36 C-1 35 -1 35 -1.59155273 33.31738281 C-2.08477891 30.518995 -2.32674986 27.75620193 -2.53515625 24.921875 C-2.62216797 23.76171875 -2.70917969 22.6015625 -2.79882812 21.40625 C-2.88583984 20.1996875 -2.97285156 18.993125 -3.0625 17.75 C-3.15337891 16.52796875 -3.24425781 15.3059375 -3.33789062 14.046875 C-3.56169061 11.03146463 -3.78227284 8.01585394 -4 5 C-2.68 4.67 -1.36 4.34 0 4 C0 2.68 0 1.36 0 0 Z " fill="#0E0E0D" transform="translate(107,5)"/>
<path d="M0 0 C4.66666667 0.66666667 9.33333333 1.33333333 14 2 C14 2.66 14 3.32 14 4 C14.61488281 4.32613281 15.22976562 4.65226563 15.86328125 4.98828125 C16.67152344 5.42527344 17.47976562 5.86226562 18.3125 6.3125 C19.11300781 6.74175781 19.91351563 7.17101562 20.73828125 7.61328125 C22.83787272 8.90059554 24.35447721 10.18406708 26 12 C25.34 12 24.68 12 24 12 C24.06058594 12.77190674 24.12117188 13.54381348 24.18359375 14.33911133 C24.45692647 17.83014835 24.72848426 21.32132121 25 24.8125 C25.09539062 26.02744141 25.19078125 27.24238281 25.2890625 28.49414062 C25.37929687 29.65751953 25.46953125 30.82089844 25.5625 32.01953125 C25.68818359 33.62985229 25.68818359 33.62985229 25.81640625 35.27270508 C25.94469699 37.17847081 26 39.08992107 26 41 C25.40832031 40.57847656 24.81664062 40.15695313 24.20703125 39.72265625 C23.41683594 39.17480469 22.62664062 38.62695312 21.8125 38.0625 C20.64654297 37.24458984 20.64654297 37.24458984 19.45703125 36.41015625 C16.88843171 34.93596796 14.94088992 34.27819229 12 34 C10.1645201 35.33378575 10.1645201 35.33378575 9 37 C8.01 36.34 7.02 35.68 6 35 C6.99 34.505 6.99 34.505 8 34 C7.34 23.77 6.68 13.54 6 3 C3.03 2.505 3.03 2.505 0 2 C0 1.34 0 0.68 0 0 Z " fill="#202220" transform="translate(115,6)"/>
<path d="M0 0 C0.99 0 1.98 0 3 0 C4.25248502 2.50497004 4.11374406 4.20853274 4.09765625 7.0078125 C4.09443359 7.99394531 4.09121094 8.98007812 4.08789062 9.99609375 C4.07951172 11.02863281 4.07113281 12.06117187 4.0625 13.125 C4.05798828 14.16527344 4.05347656 15.20554687 4.04882812 16.27734375 C4.03701952 18.85161962 4.02055075 21.42578146 4 24 C0.05534182 23.39354978 -3.33992527 22.61473885 -7 21 C-11.33034194 24.84919283 -13.6560756 28.72289646 -16 34 C-19 32 -19 32 -19.79296875 30.28125 C-20.0853719 27.05929826 -19.26338555 24.58242452 -18.3125 21.5 C-17.97863281 20.3759375 -17.64476563 19.251875 -17.30078125 18.09375 C-15.93650154 14.84897663 -14.63623457 13.27835187 -12 11 C-11.484375 10.51015625 -10.96875 10.0203125 -10.4375 9.515625 C-7.2699881 6.72683735 -6.37012463 6 -2 6 C-1.855625 5.195625 -1.71125 4.39125 -1.5625 3.5625 C-1 1 -1 1 0 0 Z M-16 18 C-15 20 -15 20 -15 20 Z M-17 21 C-16 24 -16 24 -16 24 Z " fill="#0F0E0E" transform="translate(86,15)"/>
<path d="M0 0 C6.34496664 3.17248332 7.33992607 4.067999 10.04443359 10.02246094 C11.79575031 15.47955308 11.78395954 20.93593559 11.8125 26.625 C11.83763672 27.81996094 11.86277344 29.01492187 11.88867188 30.24609375 C11.94703789 33.16439458 11.98368857 36.08121278 12 39 C10 40 10 40 2 40 C1.34 26.8 0.68 13.6 0 0 Z M7 8 C8 10 8 10 8 10 Z M8 11 C9 14 9 14 9 14 Z M9 14 C10 16 10 16 10 16 Z " fill="#272726" transform="translate(154,30)"/>
<path d="M0 0 C0 0.99 0 1.98 0 3 C-2.23046875 5.05078125 -2.23046875 5.05078125 -5.1875 7.3125 C-9.37403155 10.61424911 -12.82575396 13.73118637 -16 18 C-15.34 18 -14.68 18 -14 18 C-14 19.32 -14 20.64 -14 22 C-21.77535107 19.66739468 -27.66789933 17.20030032 -32.578125 10.5859375 C-34.20989624 8.76588496 -35.77185655 7.96172004 -38 7 C-32.5776699 2.93325243 -32.5776699 2.93325243 -30.140625 3.21484375 C-26.51527587 4.54457947 -23.11045 6.32145206 -19.65625 8.0390625 C-16.72777931 9.09847984 -15.78904522 9.29893034 -13 8 C-10.61660375 6.01523517 -8.43969233 3.87874133 -6.21875 1.71484375 C-4 0 -4 0 0 0 Z " fill="#4F83AC" transform="translate(145,121)"/>
<path d="M0 0 C0.99 0 1.98 0 3 0 C3 4.29 3 8.58 3 13 C3.99 13 4.98 13 6 13 C6.66 10.69 7.32 8.38 8 6 C8.99 6 9.98 6 11 6 C10.88590407 7.45922693 10.75834456 8.91740598 10.625 10.375 C10.55539063 11.18710938 10.48578125 11.99921875 10.4140625 12.8359375 C10 15 10 15 8 17 C6.68 17 5.36 17 4 17 C3.7834375 18.7015625 3.7834375 18.7015625 3.5625 20.4375 C3 24 3 24 2 25 C0.33382885 25.04063832 -1.33388095 25.042721 -3 25 C-3 24.01 -3 23.02 -3 22 C-4.32 21.67 -5.64 21.34 -7 21 C-7 19.68 -7 18.36 -7 17 C-4.36 17 -1.72 17 1 17 C1 16.34 1 15.68 1 15 C-1.31 14.67 -3.62 14.34 -6 14 C-6 13.01 -6 12.02 -6 11 C-4.35 11 -2.7 11 -1 11 C-1 10.34 -1 9.68 -1 9 C-2.65 9 -4.3 9 -6 9 C-6.33 7.68 -6.66 6.36 -7 5 C-5.02 5 -3.04 5 -1 5 C-0.67 3.35 -0.34 1.7 0 0 Z " fill="#F8A265" transform="translate(51,123)"/>
<path d="M0 0 C3.12498063 -0.02895976 6.2499269 -0.04678483 9.375 -0.0625 C10.70917969 -0.07506836 10.70917969 -0.07506836 12.0703125 -0.08789062 C13.34648438 -0.09272461 13.34648438 -0.09272461 14.6484375 -0.09765625 C15.43395996 -0.10289307 16.21948242 -0.10812988 17.02880859 -0.11352539 C19 0 19 0 21 1 C20.56572515 5.92178161 18.30904303 8.45459675 15 12 C12 14 12 14 9.1875 14.125 C4.58951157 12.50218055 2.16126592 9.32253184 0 5 C-0.1640625 2.234375 -0.1640625 2.234375 0 0 Z " fill="#BB2D4A" transform="translate(95,101)"/>
<path d="M0 0 C0.33 0 0.66 0 1 0 C1.2418082 4.78635751 1.45679597 9.5728848 1.64697266 14.36157227 C1.7154455 15.99047967 1.79124777 17.61909611 1.87451172 19.24731445 C1.9929207 21.58767517 2.08494985 23.92781611 2.171875 26.26953125 C2.21439392 26.99775589 2.25691284 27.72598053 2.30072021 28.47627258 C2.36230469 30.53833008 2.36230469 30.53833008 2 34 C-0.01074219 35.9206543 -0.01074219 35.9206543 -2 37 C-2 37.33 -2 37.66 -2 38 C-22.79 38 -43.58 38 -65 38 C-65 37.67 -65 37.34 -65 37 C-64.18732666 36.97494385 -63.37465332 36.9498877 -62.53735352 36.92407227 C-58.87889248 36.80850882 -55.22071472 36.68560416 -51.5625 36.5625 C-50.28310547 36.52318359 -49.00371094 36.48386719 -47.68554688 36.44335938 C-46.47060547 36.40146484 -45.25566406 36.35957031 -44.00390625 36.31640625 C-42.31503296 36.26141968 -42.31503296 36.26141968 -40.59204102 36.20532227 C-38.07146559 36.28781955 -38.07146559 36.28781955 -37 35 C-25.85781815 33.19134924 -14.23969137 33.91000247 -3 34 C-3 30.04 -3 26.08 -3 22 C-2.34 23.32 -1.68 24.64 -1 26 C-0.67 17.42 -0.34 8.84 0 0 Z M0 28 C0 29.98 0 31.96 0 34 C0.33 34 0.66 34 1 34 C1 32.02 1 30.04 1 28 C0.67 28 0.34 28 0 28 Z M-37 36 C-37 36.33 -37 36.66 -37 37 C-33.37 37 -29.74 37 -26 37 C-26 36.67 -26 36.34 -26 36 C-29.63 36 -33.26 36 -37 36 Z M-25 36 C-25 36.33 -25 36.66 -25 37 C-23.35 37 -21.7 37 -20 37 C-20 36.67 -20 36.34 -20 36 C-21.65 36 -23.3 36 -25 36 Z " fill="#9EBCD9" transform="translate(160,160)"/>
<path d="M0 0 C0.99 0.33 1.98 0.66 3 1 C0.30972712 6.98421674 -5.04058717 12.30809825 -10.86328125 15.34375 C-19.8308984 18.09797245 -29.96651226 16.02759546 -38.171875 11.91015625 C-39.81001919 10.98951922 -41.41040497 10.002136 -43 9 C-43 8.01 -43 7.02 -43 6 C-40.06091775 6.43221798 -37.90011606 7.05221206 -35.25 8.4375 C-28.17832599 11.83734328 -20.67048189 13.12794014 -13 11 C-7.96699724 8.21952995 -3.91591319 4.16065777 0 0 Z " fill="#4D81AB" transform="translate(151,150)"/>
<path d="M0 0 C6.93 0 13.86 0 21 0 C20.01 0.66 19.02 1.32 18 2 C17.27617533 4.05925139 17.27617533 4.05925139 17 6 C15.02 6 13.04 6 11 6 C11.33 6.99 11.66 7.98 12 9 C13.65 9.33 15.3 9.66 17 10 C17 10.66 17 11.32 17 12 C15.35 12 13.7 12 12 12 C12 12.99 12 13.98 12 15 C14.31 15.33 16.62 15.66 19 16 C19 16.66 19 17.32 19 18 C16.36 18 13.72 18 11 18 C10.67 18.99 10.34 19.98 10 21 C9.95101562 20.22914063 9.90203125 19.45828125 9.8515625 18.6640625 C9.77679688 17.66117188 9.70203125 16.65828125 9.625 15.625 C9.55539063 14.62726563 9.48578125 13.62953125 9.4140625 12.6015625 C9.23636036 9.84491121 9.23636036 9.84491121 7 8 C7.66 8 8.32 8 9 8 C8.17798016 5.80882227 8.17798016 5.80882227 5.93359375 5.1484375 C5.10988281 4.89320312 4.28617188 4.63796875 3.4375 4.375 C2.19806641 3.98441406 2.19806641 3.98441406 0.93359375 3.5859375 C0.29550781 3.39257812 -0.34257813 3.19921875 -1 3 C-0.67 2.01 -0.34 1.02 0 0 Z " fill="#FDC89C" transform="translate(33,122)"/>
<path d="M0 0 C1.52982314 0.24009297 3.04935577 0.54576146 4.5625 0.875 C11.99463501 2.32612926 19.45275612 2.6401565 27 3 C27.495 4.98 27.495 4.98 28 7 C27.278125 6.649375 26.55625 6.29875 25.8125 5.9375 C22.62731135 4.87577045 21.16473738 5.00060925 18 6 C17.01 6.66 16.02 7.32 15 8 C11.890625 8.01171875 11.890625 8.01171875 8.25 7.6875 C6.38214844 7.52507812 6.38214844 7.52507812 4.4765625 7.359375 C0.9611303 6.99598201 -2.51460979 6.58089837 -6 6 C-4 4 -2 2 0 0 Z " fill="#78A4D4" transform="translate(93,120)"/>
<path d="M0 0 C3.79160297 -0.05786668 7.58309311 -0.09355054 11.375 -0.125 C12.45523438 -0.14175781 13.53546875 -0.15851563 14.6484375 -0.17578125 C15.6796875 -0.18222656 16.7109375 -0.18867187 17.7734375 -0.1953125 C19.20308838 -0.21102295 19.20308838 -0.21102295 20.66162109 -0.22705078 C23 0 23 0 25 2 C25.99 3.485 25.99 3.485 27 5 C24.44634066 6.27682967 23.70775143 5.7041484 21 5 C19.34010718 4.92088457 17.6773713 4.89221115 16.015625 4.90234375 C15.08105469 4.90556641 14.14648438 4.90878906 13.18359375 4.91210938 C11.73146484 4.92467773 11.73146484 4.92467773 10.25 4.9375 C8.77466797 4.94426758 8.77466797 4.94426758 7.26953125 4.95117188 C4.84629209 4.96293517 2.42317727 4.97937316 0 5 C-0.33 5.66 -0.66 6.32 -1 7 C3.455 7.99 3.455 7.99 8 9 C8 9.99 8 10.98 8 12 C6.741875 12.04125 5.48375 12.0825 4.1875 12.125 C3.47980469 12.14820313 2.77210937 12.17140625 2.04296875 12.1953125 C0 12 0 12 -3 10 C-3 9.34 -3 8.68 -3 8 C-3.66 8 -4.32 8 -5 8 C-4.60298154 5.12161616 -4.23861838 4.19523322 -1.9375 2.3125 C-0.9784375 1.6628125 -0.9784375 1.6628125 0 1 C0 0.67 0 0.34 0 0 Z " fill="#FCD7B6" transform="translate(33,118)"/>
<path d="M0 0 C1.75916923 0.66368657 3.50905671 1.35237839 5.25 2.0625 C6.14203125 2.42472656 7.0340625 2.78695312 7.953125 3.16015625 C8.96632813 3.57587891 8.96632813 3.57587891 10 4 C9.67 4.99 9.34 5.98 9 7 C9 8.32 9 9.64 9 11 C4.35637534 10.53563753 0.9608498 9.13048694 -3.09765625 6.98828125 C-5.33924595 5.82375929 -7.63602397 4.88649101 -10 4 C-4.70123717 -1.47538826 -4.70123717 -1.47538826 0 0 Z " fill="#5183AC" transform="translate(117,125)"/>
<path d="M0 0 C1.54571278 2.31856917 2.79618552 4.50638429 4 7 C4.33 7 4.66 7 5 7 C5.9008511 11.61149968 6.13434452 15.9918777 6.125 20.6875 C6.12757813 21.99074219 6.13015625 23.29398438 6.1328125 24.63671875 C6 28 6 28 5 31 C4.9193378 32.48123547 4.89238807 33.96582204 4.90234375 35.44921875 C4.90556641 36.29677734 4.90878906 37.14433594 4.91210938 38.01757812 C4.92048828 38.89865234 4.92886719 39.77972656 4.9375 40.6875 C4.94201172 41.58017578 4.94652344 42.47285156 4.95117188 43.39257812 C4.96295017 45.59511987 4.97939836 47.79752599 5 50 C4.67 50 4.34 50 4 50 C3.58994501 45.12948792 3.18106768 40.25887878 2.77319336 35.38818359 C2.63483029 33.73776705 2.49616792 32.08737557 2.35717773 30.43701172 C1.50331234 20.29543352 0.69340165 10.15404559 0 0 Z " fill="#95B3D5" transform="translate(154,127)"/>
<path d="M0 0 C0.66 0.33 1.32 0.66 2 1 C0.71580959 2.67243402 -0.57757185 4.33781447 -1.875 6 C-2.59429687 6.928125 -3.31359375 7.85625 -4.0546875 8.8125 C-4.69664063 9.534375 -5.33859375 10.25625 -6 11 C-6.66 11 -7.32 11 -8 11 C-7.80921875 11.556875 -7.6184375 12.11375 -7.421875 12.6875 C-6.0734913 17.32844854 -5.623382 20.16161027 -7.875 24.5625 C-8.55840079 25.72337618 -9.25843181 26.87539039 -10 28 C-13 26 -13 26 -13.79296875 24.28125 C-14.0853719 21.05929826 -13.26338555 18.58242452 -12.3125 15.5 C-11.97863281 14.3759375 -11.64476563 13.251875 -11.30078125 12.09375 C-9.93474156 8.84479074 -8.64921882 7.27219527 -6 5 C-5.43796875 4.51015625 -4.8759375 4.0203125 -4.296875 3.515625 C-2.86458333 2.34375 -1.43229167 1.171875 0 0 Z M-10 12 C-9 14 -9 14 -9 14 Z M-11 15 C-10 18 -10 18 -10 18 Z " fill="#201F1C" transform="translate(80,21)"/>
<path d="M0 0 C2.33294775 -0.04241723 4.66702567 -0.04092937 7 0 C8 1 8 1 8.0625 3.5625 C8.041875 4.366875 8.02125 5.17125 8 6 C7.01 6.33 6.02 6.66 5 7 C3.77479736 10.00847418 3.77479736 10.00847418 3 13 C2.01 13 1.02 13 0 13 C0 8.71 0 4.42 0 0 Z " fill="#FDCA9E" transform="translate(54,123)"/>
<path d="M0 0 C2.31 0.33 4.62 0.66 7 1 C6.21625 1.61875 5.4325 2.2375 4.625 2.875 C2.03162353 4.89858661 2.03162353 4.89858661 0 7 C2.97 7.495 2.97 7.495 6 8 C6 8.33 6 8.66 6 9 C5.37351562 9.02578125 4.74703125 9.0515625 4.1015625 9.078125 C3.28429687 9.13484375 2.46703125 9.1915625 1.625 9.25 C0.81289062 9.29640625 0.00078125 9.3428125 -0.8359375 9.390625 C-3.18838927 9.7922092 -3.18838927 9.7922092 -4.2890625 12.046875 C-4.52367188 12.69140625 -4.75828125 13.3359375 -5 14 C-5 13.01 -5 12.02 -5 11 C-5.66 11 -6.32 11 -7 11 C-7 8 -7 8 -4.625 5.5 C-3.75875 4.675 -2.8925 3.85 -2 3 C-1.34 2.01 -0.68 1.02 0 0 Z " fill="#9EB5D2" transform="translate(88,118)"/>
<path d="M0 0 C1.75916923 0.66368657 3.50905671 1.35237839 5.25 2.0625 C6.14203125 2.42472656 7.0340625 2.78695312 7.953125 3.16015625 C8.96632813 3.57587891 8.96632813 3.57587891 10 4 C9.67 4.99 9.34 5.98 9 7 C3.77999416 6.47799942 -0.58713788 4.79095098 -5 2 C-5.33 1.34 -5.66 0.68 -6 0 C-3.42986849 -1.28506575 -2.70369482 -0.84849997 0 0 Z " fill="#77A4D3" transform="translate(117,129)"/>
<path d="M0 0 C2.00720923 0.28674418 4.0085944 0.61866701 6 1 C5.01 1.33 4.02 1.66 3 2 C3.99 3.65 4.98 5.3 6 7 C2.04 6.67 -1.92 6.34 -6 6 C-4 4 -2 2 0 0 Z " fill="#7CA4D3" transform="translate(93,120)"/>
<path d="M0 0 C1.22589844 0.01353516 1.22589844 0.01353516 2.4765625 0.02734375 C3.41628906 0.04474609 3.41628906 0.04474609 4.375 0.0625 C4.705 1.3825 5.035 2.7025 5.375 4.0625 C-0.565 4.5575 -0.565 4.5575 -6.625 5.0625 C-6.625 3.7425 -6.625 2.4225 -6.625 1.0625 C-4.21954362 -0.14022819 -2.67503047 -0.03821472 0 0 Z " fill="#231A1A" transform="translate(85.625,52.9375)"/>
<path d="M0 0 C3.3 0 6.6 0 10 0 C10.66 1.32 11.32 2.64 12 4 C7.91556885 5.53166168 4.20544343 4.63081652 0 4 C0 2.68 0 1.36 0 0 Z " fill="#302421" transform="translate(113,53)"/>
<path d="M0 0 C0.66 0.33 1.32 0.66 2 1 C0.71580959 2.67243402 -0.57757185 4.33781447 -1.875 6 C-2.59429687 6.928125 -3.31359375 7.85625 -4.0546875 8.8125 C-4.69664063 9.534375 -5.33859375 10.25625 -6 11 C-6.66 11 -7.32 11 -8 11 C-8.33 13.31 -8.66 15.62 -9 18 C-9.91574833 14.9093494 -10.40198406 12.21587249 -10 9 C-8.375 7 -8.375 7 -6 5 C-5.20722656 4.32710937 -5.20722656 4.32710937 -4.3984375 3.640625 C-2.94371234 2.4134161 -1.4730152 1.20519426 0 0 Z " fill="#333333" transform="translate(80,21)"/>
<path d="M0 0 C1.2065625 0.0309375 1.2065625 0.0309375 2.4375 0.0625 C3.5625 4.8125 3.5625 4.8125 2.4375 7.0625 C0.77138095 7.105221 -0.89632885 7.10313832 -2.5625 7.0625 C-3.5625 6.0625 -3.5625 6.0625 -3.6875 3.5625 C-3.51717518 0.15600356 -3.41884482 0.08338646 0 0 Z " fill="#20181A" transform="translate(116.5625,70.9375)"/>
<path d="M0 0 C-6.75 2.125 -6.75 2.125 -9 1 C-9 1.66 -9 2.32 -9 3 C-10.98 3 -12.96 3 -15 3 C-15.33 1.68 -15.66 0.36 -16 -1 C-14.08496326 -1.22281874 -12.16783494 -1.42771076 -10.25 -1.625 C-9.18265625 -1.74101562 -8.1153125 -1.85703125 -7.015625 -1.9765625 C-3.96207601 -2.00029475 -2.53837579 -1.61420985 0 0 Z " fill="#7C9FC4" transform="translate(104,195)"/>
<path d="M0 0 C1.65 0 3.3 0 5 0 C5.625 2.375 5.625 2.375 6 5 C5.34 5.66 4.68 6.32 4 7 C1.875 6.625 1.875 6.625 0 6 C-1.125 2.25 -1.125 2.25 0 0 Z " fill="#150F13" transform="translate(84,71)"/>
<path d="M0 0 C0 0.33 0 0.66 0 1 C-0.969375 1.2475 -1.93875 1.495 -2.9375 1.75 C-3.948125 2.1625 -4.95875 2.575 -6 3 C-6.96877057 5.03243548 -6.96877057 5.03243548 -7 7 C-8.32 6.34 -9.64 5.68 -11 5 C-11 3.68 -11 2.36 -11 1 C-7.26562152 0.12132271 -3.83225427 -0.08912219 0 0 Z " fill="#333333" transform="translate(91,14)"/>
<path d="M0 0 C3.33333333 0 6.66666667 0 10 0 C9.67 1.65 9.34 3.3 9 5 C7.35 5 5.7 5 4 5 C4 4.01 4 3.02 4 2 C2.68 1.34 1.36 0.68 0 0 Z " fill="#F8A86E" transform="translate(44,143)"/>
<path d="M0 0 C4 1 4 1 5.25 3.0625 C5.4975 3.701875 5.745 4.34125 6 5 C4.35 5 2.7 5 1 5 C1 6.65 1 8.3 1 10 C0.67 10 0.34 10 0 10 C0 6.7 0 3.4 0 0 Z " fill="#95B8D6" transform="translate(64,129)"/>
<path d="M0 0 C4.23429756 1.31061591 8.07407404 2.94356259 12 5 C12 5.33 12 5.66 12 6 C9.03 6 6.06 6 3 6 C2.01 4.02 1.02 2.04 0 0 Z " fill="#F5CDA9" transform="translate(80,112)"/>
<path d="M0 0 C0.33 0 0.66 0 1 0 C1 7.59 1 15.18 1 23 C0.67 23 0.34 23 0 23 C-2.2478185 4.495637 -2.2478185 4.495637 0 0 Z " fill="#677BBE" transform="translate(85,171)"/>
<path d="M0 0 C1.64350079 3.28700157 2.41321669 5.47930015 3 9 C2.34 9 1.68 9 1 9 C0.67 9.99 0.34 10.98 0 12 C0 8.04 0 4.08 0 0 Z " fill="#98BBE2" transform="translate(157,182)"/>
<path d="M0 0 C2.31 0 4.62 0 7 0 C7 0.99 7 1.98 7 3 C4.69 3 2.38 3 0 3 C0 2.01 0 1.02 0 0 Z " fill="#110C12" transform="translate(113,53)"/>
<path d="M0 0 C0.99 0 1.98 0 3 0 C4.6875 2.5 4.6875 2.5 6 5 C4.35 5 2.7 5 1 5 C0.67 3.35 0.34 1.7 0 0 Z " fill="#5182AA" transform="translate(93,122)"/>
<path d="M0 0 C1.65 0 3.3 0 5 0 C5 0.66 5 1.32 5 2 C5.66 2.66 6.32 3.32 7 4 C4.69 3.67 2.38 3.34 0 3 C0 2.01 0 1.02 0 0 Z " fill="#F8A66A" transform="translate(45,134)"/>
<path d="M0 0 C1.32 0.33 2.64 0.66 4 1 C4 1.66 4 2.32 4 3 C4.66 3.33 5.32 3.66 6 4 C4.125 4.625 4.125 4.625 2 5 C1.34 4.34 0.68 3.68 0 3 C0 2.01 0 1.02 0 0 Z " fill="#23181A" transform="translate(83,73)"/>
<path d="M0 0 C0.91007813 0.00902344 1.82015625 0.01804687 2.7578125 0.02734375 C3.45648438 0.03894531 4.15515625 0.05054687 4.875 0.0625 C4.545 0.7225 4.215 1.3825 3.875 2.0625 C2.946875 2.041875 2.01875 2.02125 1.0625 2 C-2.14786011 1.90480396 -2.14786011 1.90480396 -5.125 3.0625 C-5.785 2.4025 -6.445 1.7425 -7.125 1.0625 C-4.60024538 -0.19987731 -2.81299534 -0.03606404 0 0 Z " fill="#E9A58D" transform="translate(159.125,69.9375)"/>
<path d="M0 0 C0.33 0 0.66 0 1 0 C1 5.28 1 10.56 1 16 C0.67 16 0.34 16 0 16 C0 10.72 0 5.44 0 0 Z " fill="#2F272F" transform="translate(166,51)"/>
<path d="M0 0 C3.3 0 6.6 0 10 0 C10 0.33 10 0.66 10 1 C6.7 1 3.4 1 0 1 C0 0.67 0 0.34 0 0 Z " fill="#A5D8EE" transform="translate(71,166)"/>
<path d="M0 0 C1.98 0 3.96 0 6 0 C6 0.33 6 0.66 6 1 C4.02 1 2.04 1 0 1 C0 0.67 0 0.34 0 0 Z " fill="#151515" transform="translate(106,2)"/>
<path d="M0 0 C1.65 0 3.3 0 5 0 C5 0.33 5 0.66 5 1 C3.35 1 1.7 1 0 1 C0 0.67 0 0.34 0 0 Z " fill="#1D1D1D" transform="translate(80,13)"/>
<path d="M0 0 C4 1 4 1 4 1 Z " fill="#9494E9" transform="translate(67,165)"/>
<path d="M0 0 C0.99 0.33 1.98 0.66 3 1 C2.01 1 1.02 1 0 1 C0 0.67 0 0.34 0 0 Z " fill="#547A9A" transform="translate(71,133)"/>
<path d="M0 0 C1 4 1 4 1 4 Z " fill="#9FB4E9" transform="translate(157,130)"/>
<path d="M0 0 C0.99 0.33 1.98 0.66 3 1 C2.01 1 1.02 1 0 1 C0 0.67 0 0.34 0 0 Z " fill="#BFAA74" transform="translate(78,113)"/>
<path d="M0 0 C1 4 1 4 1 4 Z " fill="#1F1F1F" transform="translate(165,47)"/>
<path d="M0 0 C4 1 4 1 4 1 Z " fill="#000000" transform="translate(115,4)"/>
<path d="M0 0 C0.99 0.495 0.99 0.495 2 1 C1.01 1.495 1.01 1.495 0 2 C0 1.34 0 0.68 0 0 Z " fill="#4663AA" transform="translate(74,131)"/>
<path d="" fill="#9BB8E2" transform="translate(0,0)"/>
<path d="" fill="#D48D8D" transform="translate(0,0)"/>
<path d="M0 0 C3 1 3 1 3 1 Z " fill="#FFFFD4" transform="translate(160,92)"/>
<path d="M0 0 C3 1 3 1 3 1 Z " fill="#FF7171" transform="translate(163,91)"/>
<path d="M0 0 C0.33 0.66 0.66 1.32 1 2 C0.34 1.67 -0.32 1.34 -1 1 C-0.67 0.67 -0.34 0.34 0 0 Z " fill="#FFD47F" transform="translate(169,87)"/>
<path d="" fill="#000000" transform="translate(0,0)"/>
<path d="M0 0 C3 1 3 1 3 1 Z " fill="#000000" transform="translate(119,5)"/>
<path d="M0 0 C3 1 3 1 3 1 Z " fill="#2A2A2A" transform="translate(112,3)"/>
<path d="M0 0 C2 1 2 1 2 1 Z " fill="#AAD4D4" transform="translate(65,164)"/>
<path d="M0 0 C2 1 2 1 2 1 Z " fill="#2AD4D4" transform="translate(63,163)"/>
<path d="M0 0 C2 1 2 1 2 1 Z " fill="#3F3F7F" transform="translate(61,162)"/>
<path d="" fill="#FFFFFF" transform="translate(0,0)"/>
<path d="M0 0 C2 1 2 1 2 1 Z " fill="#AAD4D4" transform="translate(81,124)"/>
<path d="M0 0 C2 1 2 1 2 1 Z " fill="#FF7F7F" transform="translate(58,120)"/>
<path d="M0 0 C2 1 2 1 2 1 Z " fill="#FFBFBF" transform="translate(31,119)"/>
<path d="M0 0 C2 1 2 1 2 1 Z " fill="#FF946A" transform="translate(85,118)"/>
<path d="" fill="#BF7F7F" transform="translate(0,0)"/>
<path d="M0 0 C2 1 2 1 2 1 Z " fill="#000000" transform="translate(141,16)"/>
<path d="M0 0 C2 1 2 1 2 1 Z " fill="#3F3F3F" transform="translate(139,15)"/>
<path d="M0 0 C2 1 2 1 2 1 Z " fill="#000000" transform="translate(135,12)"/>
<path d="M0 0 C2 1 2 1 2 1 Z " fill="#000000" transform="translate(133,11)"/>
<path d="M0 0 C2 1 2 1 2 1 Z " fill="#000000" transform="translate(131,10)"/>
<path d="" fill="#000000" transform="translate(0,0)"/>
<path d="M0 0 C2 1 2 1 2 1 Z " fill="#000000" transform="translate(129,9)"/>
<path d="M0 0 C2 1 2 1 2 1 Z " fill="#000000" transform="translate(124,7)"/>
<path d="M0 0 C2 1 2 1 2 1 Z " fill="#000000" transform="translate(122,6)"/>
<path d="" fill="#FFFFFF" transform="translate(0,0)"/>
<path d="" fill="#000000" transform="translate(0,0)"/>
<path d="" fill="#FFFFFF" transform="translate(0,0)"/>
<path d="" fill="#FFFFFF" transform="translate(0,0)"/>
<path d="" fill="#7F7F7F" transform="translate(0,0)"/>
<path d="" fill="#55AAAA" transform="translate(0,0)"/>
<path d="" fill="#0000FF" transform="translate(0,0)"/>
<path d="" fill="#7F7FFF" transform="translate(0,0)"/>
<path d="" fill="#AAAAAA" transform="translate(0,0)"/>
<path d="" fill="#000000" transform="translate(0,0)"/>
<path d="" fill="#AAAAAA" transform="translate(0,0)"/>
<path d="" fill="#AAAAAA" transform="translate(0,0)"/>
<path d="" fill="#FFFF00" transform="translate(0,0)"/>
<path d="" fill="#FF0000" transform="translate(0,0)"/>
<path d="" fill="#FF7F7F" transform="translate(0,0)"/>
<path d="" fill="#7FBFBF" transform="translate(0,0)"/>
<path d="" fill="#AAAAFF" transform="translate(0,0)"/>
<path d="" fill="#AAAAAA" transform="translate(0,0)"/>
<path d="" fill="#7F7F7F" transform="translate(0,0)"/>
<path d="" fill="#FFFFFF" transform="translate(0,0)"/>
<path d="" fill="#7F7FBF" transform="translate(0,0)"/>
<path d="" fill="#FFFFFF" transform="translate(0,0)"/>
<path d="" fill="#55AAAA" transform="translate(0,0)"/>
<path d="" fill="#FFFF7F" transform="translate(0,0)"/>
<path d="" fill="#5555AA" transform="translate(0,0)"/>
<path d="" fill="#FF7F7F" transform="translate(0,0)"/>
<path d="" fill="#FFFFFF" transform="translate(0,0)"/>
<path d="" fill="#FF7F7F" transform="translate(0,0)"/>
<path d="" fill="#7FFFFF" transform="translate(0,0)"/>
<path d="" fill="#AAAAFF" transform="translate(0,0)"/>
<path d="" fill="#AAAAAA" transform="translate(0,0)"/>
<path d="" fill="#FFAAAA" transform="translate(0,0)"/>
<path d="" fill="#55AAAA" transform="translate(0,0)"/>
<path d="" fill="#BFBFBF" transform="translate(0,0)"/>
<path d="" fill="#FFAAAA" transform="translate(0,0)"/>
<path d="" fill="#FFFFFF" transform="translate(0,0)"/>
<path d="" fill="#FFAAAA" transform="translate(0,0)"/>
<path d="" fill="#FFFFFF" transform="translate(0,0)"/>
<path d="" fill="#FFAAAA" transform="translate(0,0)"/>
<path d="" fill="#FF5555" transform="translate(0,0)"/>
<path d="" fill="#FFAAAA" transform="translate(0,0)"/>
<path d="" fill="#FF7F7F" transform="translate(0,0)"/>
<path d="" fill="#7F7F7F" transform="translate(0,0)"/>
<path d="" fill="#FFFFFF" transform="translate(0,0)"/>
<path d="" fill="#FFFFFF" transform="translate(0,0)"/>
<path d="" fill="#7F7F7F" transform="translate(0,0)"/>
<path d="" fill="#000000" transform="translate(0,0)"/>
<path d="" fill="#7F7F7F" transform="translate(0,0)"/>
<path d="" fill="#000000" transform="translate(0,0)"/>
<path d="" fill="#000000" transform="translate(0,0)"/>
<path d="" fill="#000000" transform="translate(0,0)"/>
<path d="" fill="#000000" transform="translate(0,0)"/>
<path d="" fill="#000000" transform="translate(0,0)"/>
<path d="" fill="#000000" transform="translate(0,0)"/>
<path d="" fill="#000000" transform="translate(0,0)"/>
<path d="" fill="#000000" transform="translate(0,0)"/>
<path d="" fill="#000000" transform="translate(0,0)"/>
<path d="" fill="#000000" transform="translate(0,0)"/>
<path d="" fill="#000000" transform="translate(0,0)"/>
<path d="" fill="#000000" transform="translate(0,0)"/>
<path d="" fill="#000000" transform="translate(0,0)"/>
<path d="" fill="#000000" transform="translate(0,0)"/>
<path d="" fill="#000000" transform="translate(0,0)"/>
<path d="" fill="#000000" transform="translate(0,0)"/>
<path d="" fill="#7F7F7F" transform="translate(0,0)"/>
</svg>
